<svg width="158" height="31" viewBox="0 0 158 31" fill="none" xmlns="http://www.w3.org/2000/svg">
<path d="M10.3942 30.2095H4.48454V15.4774H0.45874V10.6809H4.48438V7.26788C4.48438 3.22342 6.26493 0.322754 12.1586 0.322754C13.4052 0.322754 15.3621 0.574004 15.3621 0.574004V5.0278H13.3067C11.2123 5.0278 10.3946 5.66487 10.3946 7.42613V10.6809H15.2837L14.8484 15.4774H10.3944L10.3942 30.2095ZM23.9542 10.2976C23.8681 10.2976 23.7795 10.3008 23.6918 10.3029C18.212 10.3029 15.7048 14.4249 15.7048 20.2761C15.7048 27.647 18.957 30.5971 23.7346 30.5971C26.4681 30.5971 28.264 29.4465 29.3556 27.2995V30.2116H34.9766V10.683H29.3556V13.6862C28.4643 11.754 26.6182 10.3205 23.9542 10.2976ZM25.3834 14.9122C27.685 14.9122 29.0664 16.5175 29.0664 19.2482L29.0717 22.0372C29.0717 23.8776 27.9307 26.0308 25.3834 26.0308C21.4673 26.0308 21.5719 21.8022 21.5719 20.3939C21.5719 15.6564 23.6584 14.9122 25.3834 14.9122ZM37.2466 20.4483C37.2466 18.0752 37.133 10.3103 47.2495 10.3103C51.3105 10.3103 53.0062 11.6015 53.0062 11.6015L51.6433 15.8287C51.6433 15.8287 49.9498 14.8962 47.7431 14.8962C44.9168 14.8962 43.1133 16.5346 43.1133 19.4174L43.1165 21.4845C43.1165 24.2545 44.8565 26.1036 47.7489 26.1036C49.7592 26.1036 51.612 25.1623 51.612 25.1623L52.9715 29.3012C52.9715 29.3012 51.421 30.6005 47.2779 30.6005C37.6454 30.6005 37.2467 23.6339 37.2467 20.4483H37.2466ZM85.9639 10.3029C91.4439 10.3029 93.9906 14.4249 93.9906 20.2761C93.9906 27.647 90.7383 30.5971 85.9606 30.5971C83.2272 30.5971 81.2065 29.4467 80.1149 27.2995V30.2116L74.5647 30.2094V0.916531L80.4576 0.402583V13.4216C81.3081 11.1439 84.1032 10.3029 85.9641 10.3029H85.9639ZM84.3118 14.9122C82.0103 14.9122 80.4576 16.5175 80.4576 19.2482L80.4521 22.0372C80.4487 23.8776 81.5274 26.0308 84.3118 26.0308C88.228 26.0308 88.1234 21.8022 88.1234 20.3939C88.1234 15.6564 86.037 14.9122 84.3118 14.9122ZM63.2309 10.3191C57.0155 10.3191 53.7342 13.7078 53.7342 19.73V20.8488C53.7342 28.665 58.3422 30.6774 63.8358 30.6774C69.1755 30.6774 71.5925 29.1838 71.5925 29.1838L70.4898 25.2065C70.4898 25.2065 67.6467 26.4162 64.5423 26.4162C61.3241 26.4162 59.94 25.5959 59.5852 22.5031H72.0637V19.3123C72.0637 12.7798 68.381 10.3189 63.2307 10.3189L63.2309 10.3191ZM63.3806 14.3018C65.5321 14.3018 66.9262 15.6211 66.8497 18.6808H59.5961C59.7218 15.4605 61.2253 14.3019 63.3806 14.3019V14.3018ZM105.741 10.2923C99.3581 10.2923 95.9979 13.8891 95.9979 20.3349C95.9979 29.1788 101.79 30.6024 105.751 30.6024C111.551 30.6024 115.409 27.4803 115.409 20.4152C115.409 13.0617 111.071 10.2923 105.741 10.2923ZM105.661 14.9282C108.467 14.9282 109.579 17.0287 109.579 19.4196V21.4752C109.579 24.3717 108.023 26.047 105.65 26.047C103.43 26.047 101.87 24.4799 101.87 21.4752V19.4196C101.87 16.2152 103.727 14.9282 105.661 14.9282ZM127.148 10.2923C120.766 10.2923 117.406 13.8891 117.406 20.3349C117.406 29.1788 123.198 30.6024 127.159 30.6024C132.958 30.6024 136.816 27.4803 136.816 20.4152C136.816 13.0617 132.478 10.2923 127.148 10.2923ZM127.068 14.9282C129.875 14.9282 130.987 17.0287 130.987 19.4196V21.4752C130.987 24.3717 129.431 26.047 127.058 26.047C124.838 26.047 123.278 24.4799 123.278 21.4752V19.4196C123.278 16.2152 125.134 14.9282 127.068 14.9282ZM139.043 30.2095V0.916531L144.953 0.402583V20.0366L150.817 10.6809H157.058L150.942 20.3707L157.294 30.2095H151.035L144.953 20.6561V30.2095H139.043Z" fill="#2D88FF"/>
</svg>
