<svg width="27" height="26" viewBox="0 0 27 26" fill="none" xmlns="http://www.w3.org/2000/svg">
<path d="M25.7121 13.1854C25.7121 19.867 20.2831 25.2854 13.5837 25.2854C6.88432 25.2854 1.45532 19.867 1.45532 13.1854C1.45532 6.50386 6.88432 1.08545 13.5837 1.08545C20.2831 1.08545 25.7121 6.50386 25.7121 13.1854Z" fill="#1E293B" stroke="white"/>
<path d="M14.1843 13.8611V18.6093H12.6682V13.8611V13.6111H12.4182H10.9824V12.1632H12.4182H12.6682V11.9132V10.4767C12.6682 9.69499 12.9063 9.12084 13.2903 8.74212C13.6752 8.36256 14.2345 8.15186 14.9292 8.15186C15.4476 8.15186 15.9107 8.18028 16.1856 8.20409V9.47089L15.4018 9.47125C15.4018 9.47125 15.4018 9.47125 15.4017 9.47125C14.9633 9.47126 14.6321 9.57487 14.423 9.82268C14.2219 10.061 14.1843 10.3768 14.1843 10.6695V11.9132V12.1632H14.4343H16.0831L15.896 13.6111H14.4343H14.1843V13.8611Z" fill="white" stroke="white" stroke-width="0.5"/>
</svg>
