<svg width="57" height="57" viewBox="0 0 57 57" fill="none" xmlns="http://www.w3.org/2000/svg">
<path d="M28.0298 0.39502C12.6018 0.39502 0.0297852 12.967 0.0297852 28.395C0.0297852 43.823 12.6018 56.395 28.0298 56.395C43.4578 56.395 56.0298 43.823 56.0298 28.395C56.0298 12.967 43.4578 0.39502 28.0298 0.39502ZM33.0418 36.795C33.8538 37.607 33.8538 38.951 33.0418 39.763C32.6218 40.183 32.0898 40.379 31.5578 40.379C31.0258 40.379 30.4938 40.183 30.0738 39.763L20.1898 29.879C19.7992 29.4838 19.5802 28.9506 19.5802 28.395C19.5802 27.8394 19.7992 27.3062 20.1898 26.911L30.0738 17.027C30.8858 16.215 32.2298 16.215 33.0418 17.027C33.8538 17.839 33.8538 19.183 33.0418 19.995L24.6418 28.395L33.0418 36.795Z" fill="white"/>
</svg>
