<svg width="57" height="57" viewBox="0 0 57 57" fill="none" xmlns="http://www.w3.org/2000/svg">
<path d="M28.0298 0.39502C12.6018 0.39502 0.0297852 12.967 0.0297852 28.395C0.0297852 43.823 12.6018 56.395 28.0298 56.395C43.4578 56.395 56.0298 43.823 56.0298 28.395C56.0298 12.967 43.4578 0.39502 28.0298 0.39502ZM35.8418 29.879L25.9578 39.763C25.5378 40.183 25.0058 40.379 24.4738 40.379C23.9418 40.379 23.4098 40.183 22.9898 39.763C22.5992 39.3678 22.3802 38.8346 22.3802 38.279C22.3802 37.7234 22.5992 37.1902 22.9898 36.795L31.3898 28.395L22.9898 19.995C22.5992 19.5998 22.3802 19.0666 22.3802 18.511C22.3802 17.9554 22.5992 17.4222 22.9898 17.027C23.8018 16.215 25.1458 16.215 25.9578 17.027L35.8418 26.911C36.6818 27.723 36.6818 29.067 35.8418 29.879Z" fill="white"/>
</svg>
