<svg width="26" height="26" viewBox="0 0 26 26" fill="none" xmlns="http://www.w3.org/2000/svg">
<ellipse cx="12.7475" cy="13.1854" rx="12.6284" ry="12.6" fill="#1E293B"/>
<path fill-rule="evenodd" clip-rule="evenodd" d="M13.2965 7.08984C10.0573 7.08984 7.45142 9.6899 7.45142 12.9218C7.45142 15.4975 9.13186 17.6845 11.4455 18.4621C11.7378 18.5107 11.8352 18.3406 11.8352 18.1705C11.8352 18.0247 11.8352 17.6602 11.8352 17.1742C10.2035 17.5387 9.86249 16.3966 9.86249 16.3966C9.5946 15.7162 9.20493 15.5461 9.20493 15.5461C8.66913 15.1816 9.25364 15.1816 9.25364 15.1816C9.83814 15.2302 10.1547 15.7891 10.1547 15.7891C10.6662 16.6882 11.5186 16.4209 11.8595 16.2751C11.9083 15.8863 12.0544 15.6433 12.2249 15.4975C10.9341 15.3517 9.57024 14.8414 9.57024 12.6059C9.57024 11.9741 9.78943 11.4395 10.1791 11.0507C10.1304 10.9049 9.9112 10.3217 10.2278 9.49551C10.2278 9.49551 10.7149 9.34971 11.8352 10.103C12.2979 9.9815 12.8094 9.9086 13.2965 9.9086C13.7835 9.9086 14.295 9.9815 14.7577 10.103C15.878 9.34971 16.3651 9.49551 16.3651 9.49551C16.6817 10.2974 16.4869 10.8806 16.4138 11.0507C16.7791 11.4638 17.0227 11.9741 17.0227 12.6059C17.0227 14.8414 15.6588 15.3274 14.3437 15.4732C14.5629 15.6433 14.7334 16.0078 14.7334 16.5424C14.7334 17.32 14.7334 17.9518 14.7334 18.1462C14.7334 18.292 14.8308 18.4864 15.1474 18.4378C17.461 17.6845 19.1415 15.4975 19.1415 12.9218C19.1415 9.6899 16.5356 7.08984 13.2965 7.08984Z" fill="white"/>
</svg>
