<svg width="198" height="40" viewBox="0 0 198 40" fill="none" xmlns="http://www.w3.org/2000/svg">
<path d="M16.4992 2.5H37.5808L22.0816 25.4729H1L16.4992 2.5Z" fill="#007AFF"/>
<path d="M17.4224 27.602L11.4192 36.5H33.5008L49 13.5271H32.7024L23.2064 27.602H17.4224Z" fill="#312ECB"/>
<path d="M66.72 28.5C66.592 28.5 66.472 28.452 66.36 28.356C66.264 28.244 66.216 28.124 66.216 27.996C66.216 27.916 66.224 27.844 66.24 27.78L71.88 12.372C71.928 12.196 72.024 12.044 72.168 11.916C72.328 11.772 72.544 11.7 72.816 11.7H76.368C76.64 11.7 76.848 11.772 76.992 11.916C77.152 12.044 77.256 12.196 77.304 12.372L82.92 27.78C82.952 27.844 82.968 27.916 82.968 27.996C82.968 28.124 82.912 28.244 82.8 28.356C82.704 28.452 82.584 28.5 82.44 28.5H79.488C79.248 28.5 79.064 28.444 78.936 28.332C78.824 28.204 78.752 28.092 78.72 27.996L77.784 25.548H71.376L70.464 27.996C70.432 28.092 70.36 28.204 70.248 28.332C70.136 28.444 69.944 28.5 69.672 28.5H66.72ZM72.36 22.092H76.824L74.568 15.756L72.36 22.092ZM85.1957 28.5C85.0197 28.5 84.8757 28.444 84.7637 28.332C84.6517 28.22 84.5957 28.076 84.5957 27.9V12.06C84.5957 11.884 84.6517 11.74 84.7637 11.628C84.8757 11.516 85.0197 11.46 85.1957 11.46H88.0277C88.2037 11.46 88.3477 11.516 88.4597 11.628C88.5717 11.74 88.6277 11.884 88.6277 12.06V27.9C88.6277 28.076 88.5717 28.22 88.4597 28.332C88.3477 28.444 88.2037 28.5 88.0277 28.5H85.1957ZM92.0629 28.5C91.8869 28.5 91.7429 28.444 91.6309 28.332C91.5189 28.22 91.4629 28.076 91.4629 27.9V16.62C91.4629 16.46 91.5189 16.324 91.6309 16.212C91.7429 16.084 91.8869 16.02 92.0629 16.02H94.8229C94.9989 16.02 95.1429 16.084 95.2549 16.212C95.3669 16.324 95.4229 16.46 95.4229 16.62V17.58C95.8549 17.084 96.3669 16.7 96.9589 16.428C97.5669 16.156 98.2469 16.02 98.9989 16.02H100.055C100.215 16.02 100.351 16.076 100.463 16.188C100.591 16.3 100.655 16.444 100.655 16.62V19.092C100.655 19.252 100.591 19.396 100.463 19.524C100.351 19.636 100.215 19.692 100.055 19.692H97.7269C97.0709 19.692 96.5589 19.876 96.1909 20.244C95.8389 20.596 95.6629 21.1 95.6629 21.756V27.9C95.6629 28.076 95.5989 28.22 95.4709 28.332C95.3589 28.444 95.2149 28.5 95.0389 28.5H92.0629ZM102.961 28.5C102.785 28.5 102.641 28.444 102.529 28.332C102.417 28.22 102.361 28.076 102.361 27.9V16.62C102.361 16.444 102.417 16.3 102.529 16.188C102.641 16.076 102.785 16.02 102.961 16.02H105.793C105.953 16.02 106.089 16.076 106.201 16.188C106.329 16.3 106.393 16.444 106.393 16.62V27.9C106.393 28.076 106.329 28.22 106.201 28.332C106.089 28.444 105.953 28.5 105.793 28.5H102.961ZM102.937 14.22C102.761 14.22 102.617 14.164 102.505 14.052C102.393 13.94 102.337 13.796 102.337 13.62V11.484C102.337 11.308 102.393 11.164 102.505 11.052C102.617 10.924 102.761 10.86 102.937 10.86H105.793C105.969 10.86 106.113 10.924 106.225 11.052C106.353 11.164 106.417 11.308 106.417 11.484V13.62C106.417 13.796 106.353 13.94 106.225 14.052C106.113 14.164 105.969 14.22 105.793 14.22H102.937ZM115.325 33.78C114.093 33.78 113.069 33.62 112.253 33.3C111.453 32.98 110.813 32.596 110.333 32.148C109.869 31.7 109.533 31.252 109.325 30.804C109.117 30.372 109.005 30.028 108.989 29.772C108.973 29.596 109.029 29.452 109.157 29.34C109.285 29.228 109.437 29.172 109.613 29.172H112.661C112.805 29.172 112.925 29.204 113.021 29.268C113.133 29.348 113.221 29.476 113.285 29.652C113.365 29.828 113.469 30.012 113.597 30.204C113.741 30.396 113.933 30.548 114.173 30.66C114.429 30.788 114.773 30.852 115.205 30.852C115.685 30.852 116.085 30.772 116.405 30.612C116.725 30.468 116.965 30.22 117.125 29.868C117.285 29.532 117.365 29.076 117.365 28.5V26.892C116.997 27.292 116.525 27.62 115.949 27.876C115.373 28.116 114.677 28.236 113.861 28.236C113.045 28.236 112.325 28.116 111.701 27.876C111.077 27.636 110.557 27.276 110.141 26.796C109.725 26.316 109.397 25.732 109.157 25.044C108.933 24.356 108.797 23.564 108.749 22.668C108.733 22.252 108.733 21.836 108.749 21.42C108.797 20.556 108.933 19.78 109.157 19.092C109.381 18.404 109.701 17.812 110.117 17.316C110.549 16.82 111.077 16.444 111.701 16.188C112.325 15.916 113.045 15.78 113.861 15.78C114.725 15.78 115.461 15.948 116.069 16.284C116.693 16.604 117.205 17.012 117.605 17.508V16.62C117.605 16.46 117.661 16.324 117.773 16.212C117.885 16.084 118.029 16.02 118.205 16.02H120.965C121.141 16.02 121.285 16.084 121.397 16.212C121.525 16.324 121.589 16.46 121.589 16.62V28.164C121.589 29.38 121.341 30.404 120.845 31.236C120.349 32.068 119.637 32.7 118.709 33.132C117.781 33.564 116.653 33.78 115.325 33.78ZM115.157 25.116C115.669 25.116 116.085 25.004 116.405 24.78C116.725 24.556 116.957 24.268 117.101 23.916C117.261 23.564 117.349 23.188 117.365 22.788C117.381 22.612 117.389 22.364 117.389 22.044C117.389 21.724 117.381 21.484 117.365 21.324C117.349 20.908 117.261 20.524 117.101 20.172C116.957 19.82 116.725 19.54 116.405 19.332C116.085 19.108 115.669 18.996 115.157 18.996C114.629 18.996 114.205 19.108 113.885 19.332C113.581 19.556 113.357 19.86 113.213 20.244C113.085 20.628 113.005 21.052 112.973 21.516C112.957 21.868 112.957 22.228 112.973 22.596C113.005 23.06 113.085 23.484 113.213 23.868C113.357 24.252 113.581 24.556 113.885 24.78C114.205 25.004 114.629 25.116 115.157 25.116ZM125.016 28.5C124.84 28.5 124.696 28.444 124.584 28.332C124.472 28.22 124.416 28.076 124.416 27.9V12.06C124.416 11.884 124.472 11.74 124.584 11.628C124.696 11.516 124.84 11.46 125.016 11.46H128.088C128.264 11.46 128.408 11.516 128.52 11.628C128.632 11.74 128.688 11.884 128.688 12.06V17.412C129.12 16.916 129.648 16.524 130.272 16.236C130.912 15.932 131.648 15.78 132.48 15.78C133.408 15.78 134.232 15.988 134.952 16.404C135.688 16.82 136.264 17.436 136.68 18.252C137.096 19.052 137.304 20.036 137.304 21.204V27.9C137.304 28.076 137.248 28.22 137.136 28.332C137.024 28.444 136.88 28.5 136.704 28.5H133.608C133.448 28.5 133.304 28.444 133.176 28.332C133.064 28.22 133.008 28.076 133.008 27.9V21.348C133.008 20.596 132.824 20.02 132.456 19.62C132.104 19.204 131.576 18.996 130.872 18.996C130.216 18.996 129.688 19.204 129.288 19.62C128.888 20.02 128.688 20.596 128.688 21.348V27.9C128.688 28.076 128.632 28.22 128.52 28.332C128.408 28.444 128.264 28.5 128.088 28.5H125.016ZM146.292 28.5C145.268 28.5 144.38 28.34 143.628 28.02C142.892 27.684 142.324 27.172 141.924 26.484C141.524 25.78 141.324 24.876 141.324 23.772V19.164H139.452C139.276 19.164 139.124 19.108 138.996 18.996C138.884 18.884 138.828 18.74 138.828 18.564V16.62C138.828 16.444 138.884 16.3 138.996 16.188C139.124 16.076 139.276 16.02 139.452 16.02H141.324V12.06C141.324 11.884 141.38 11.74 141.492 11.628C141.62 11.516 141.764 11.46 141.924 11.46H144.708C144.884 11.46 145.028 11.516 145.14 11.628C145.252 11.74 145.308 11.884 145.308 12.06V16.02H148.308C148.484 16.02 148.628 16.076 148.74 16.188C148.852 16.3 148.908 16.444 148.908 16.62V18.564C148.908 18.74 148.852 18.884 148.74 18.996C148.628 19.108 148.484 19.164 148.308 19.164H145.308V23.436C145.308 23.98 145.412 24.412 145.62 24.732C145.828 25.052 146.18 25.212 146.676 25.212H148.524C148.7 25.212 148.844 25.268 148.956 25.38C149.068 25.492 149.124 25.636 149.124 25.812V27.9C149.124 28.076 149.068 28.22 148.956 28.332C148.844 28.444 148.7 28.5 148.524 28.5H146.292ZM150.415 28.5C150.287 28.5 150.167 28.452 150.055 28.356C149.959 28.244 149.911 28.124 149.911 27.996C149.911 27.916 149.919 27.844 149.935 27.78L155.575 12.372C155.623 12.196 155.719 12.044 155.863 11.916C156.023 11.772 156.239 11.7 156.511 11.7H160.063C160.335 11.7 160.543 11.772 160.687 11.916C160.847 12.044 160.951 12.196 160.999 12.372L166.615 27.78C166.647 27.844 166.663 27.916 166.663 27.996C166.663 28.124 166.607 28.244 166.495 28.356C166.399 28.452 166.279 28.5 166.135 28.5H163.183C162.943 28.5 162.759 28.444 162.631 28.332C162.519 28.204 162.447 28.092 162.415 27.996L161.479 25.548H155.071L154.159 27.996C154.127 28.092 154.055 28.204 153.943 28.332C153.831 28.444 153.639 28.5 153.367 28.5H150.415ZM156.055 22.092H160.519L158.263 15.756L156.055 22.092ZM168.891 33.06C168.715 33.06 168.571 33.004 168.459 32.892C168.347 32.78 168.291 32.636 168.291 32.46V16.62C168.291 16.444 168.347 16.3 168.459 16.188C168.571 16.076 168.715 16.02 168.891 16.02H171.603C171.763 16.02 171.899 16.076 172.011 16.188C172.139 16.3 172.203 16.444 172.203 16.62V17.508C172.571 17.012 173.059 16.604 173.667 16.284C174.275 15.948 175.027 15.78 175.923 15.78C176.723 15.78 177.427 15.908 178.035 16.164C178.643 16.404 179.163 16.764 179.595 17.244C180.027 17.724 180.363 18.308 180.603 18.996C180.859 19.684 181.003 20.476 181.035 21.372C181.051 21.692 181.059 21.988 181.059 22.26C181.059 22.532 181.051 22.828 181.035 23.148C181.003 24.012 180.867 24.788 180.627 25.476C180.387 26.164 180.051 26.748 179.619 27.228C179.187 27.708 178.659 28.084 178.035 28.356C177.427 28.612 176.723 28.74 175.923 28.74C175.139 28.74 174.451 28.604 173.859 28.332C173.283 28.044 172.803 27.644 172.419 27.132V32.46C172.419 32.636 172.363 32.78 172.251 32.892C172.139 33.004 171.995 33.06 171.819 33.06H168.891ZM174.627 25.524C175.171 25.524 175.595 25.412 175.899 25.188C176.203 24.964 176.419 24.66 176.547 24.276C176.691 23.892 176.779 23.468 176.811 23.004C176.843 22.508 176.843 22.012 176.811 21.516C176.779 21.052 176.691 20.628 176.547 20.244C176.419 19.86 176.203 19.556 175.899 19.332C175.595 19.108 175.171 18.996 174.627 18.996C174.099 18.996 173.675 19.116 173.355 19.356C173.035 19.58 172.803 19.876 172.659 20.244C172.515 20.612 172.435 21.012 172.419 21.444C172.403 21.748 172.395 22.044 172.395 22.332C172.395 22.62 172.403 22.924 172.419 23.244C172.435 23.644 172.523 24.02 172.683 24.372C172.843 24.708 173.083 24.988 173.403 25.212C173.723 25.42 174.131 25.524 174.627 25.524ZM184.032 33.06C183.856 33.06 183.712 33.004 183.6 32.892C183.488 32.78 183.432 32.636 183.432 32.46V16.62C183.432 16.444 183.488 16.3 183.6 16.188C183.712 16.076 183.856 16.02 184.032 16.02H186.744C186.904 16.02 187.04 16.076 187.152 16.188C187.28 16.3 187.344 16.444 187.344 16.62V17.508C187.712 17.012 188.2 16.604 188.808 16.284C189.416 15.948 190.168 15.78 191.064 15.78C191.864 15.78 192.568 15.908 193.176 16.164C193.784 16.404 194.304 16.764 194.736 17.244C195.168 17.724 195.504 18.308 195.744 18.996C196 19.684 196.144 20.476 196.176 21.372C196.192 21.692 196.2 21.988 196.2 22.26C196.2 22.532 196.192 22.828 196.176 23.148C196.144 24.012 196.008 24.788 195.768 25.476C195.528 26.164 195.192 26.748 194.76 27.228C194.328 27.708 193.8 28.084 193.176 28.356C192.568 28.612 191.864 28.74 191.064 28.74C190.28 28.74 189.592 28.604 189 28.332C188.424 28.044 187.944 27.644 187.56 27.132V32.46C187.56 32.636 187.504 32.78 187.392 32.892C187.28 33.004 187.136 33.06 186.96 33.06H184.032ZM189.768 25.524C190.312 25.524 190.736 25.412 191.04 25.188C191.344 24.964 191.56 24.66 191.688 24.276C191.832 23.892 191.92 23.468 191.952 23.004C191.984 22.508 191.984 22.012 191.952 21.516C191.92 21.052 191.832 20.628 191.688 20.244C191.56 19.86 191.344 19.556 191.04 19.332C190.736 19.108 190.312 18.996 189.768 18.996C189.24 18.996 188.816 19.116 188.496 19.356C188.176 19.58 187.944 19.876 187.8 20.244C187.656 20.612 187.576 21.012 187.56 21.444C187.544 21.748 187.536 22.044 187.536 22.332C187.536 22.62 187.544 22.924 187.56 23.244C187.576 23.644 187.664 24.02 187.824 24.372C187.984 24.708 188.224 24.988 188.544 25.212C188.864 25.42 189.272 25.524 189.768 25.524Z" fill="black"/>
</svg>
