<svg width="564" height="487" viewBox="0 0 564 487" fill="none" xmlns="http://www.w3.org/2000/svg">
<path d="M74.7894 160.18L75.9759 157.999H73.2231L74.3147 155.818C75.5487 154.965 77.3524 155.818 78.1118 154.159C78.1118 153.069 76.7354 153.685 76.3082 153.116C75.9184 152.499 75.5848 151.849 75.3115 151.173C75.9838 150.71 76.7423 150.388 77.5422 150.224C78.6291 150.112 79.6639 149.702 80.5324 149.039C82.336 147.949 84.0447 146.574 85.9907 145.247L85.0889 143.256L87.6518 142.071C87.9366 142.071 88.2215 141.549 88.5063 141.597C90.8794 142.023 91.6863 140.317 92.6356 138.705C92.8253 138.327 93.0647 137.976 93.3475 137.662C96.2902 136.098 99.1854 136.998 101.938 136.572C102.466 136.585 102.985 136.715 103.457 136.951C104.471 137.342 105.567 137.474 106.645 137.333C107.723 137.192 108.748 136.784 109.627 136.145C111.573 134.754 113.846 133.889 116.225 133.632C116.937 133.598 117.633 133.416 118.271 133.098C118.908 132.779 119.472 132.332 119.927 131.784L121.588 132.115C122.186 131.088 122.986 130.193 123.941 129.484C124.895 128.775 125.984 128.267 127.141 127.991C128.375 127.707 129.609 127.233 130.891 126.948C133.529 126.272 136.055 125.219 138.39 123.819C141.902 122.065 145.32 120.217 148.879 118.605C151.094 117.478 153.234 116.212 155.287 114.812C157.757 113.246 160.491 112.138 163.356 111.541V111.541C163.356 112.869 162.122 113.343 161.315 113.864C158.704 115.476 155.999 116.803 153.293 118.273C152.077 118.959 150.904 119.719 149.781 120.548C147.892 121.82 145.871 122.885 143.753 123.725C140.439 125.34 137.264 127.227 134.261 129.366C134.03 129.58 133.823 129.819 133.644 130.077C133.615 130.212 133.621 130.352 133.661 130.484C133.702 130.616 133.776 130.735 133.876 130.83C133.976 130.925 134.099 130.993 134.233 131.027C134.367 131.061 134.507 131.061 134.64 131.025C135.922 131.025 137.298 131.025 138.437 130.361C138.482 130.34 138.531 130.329 138.58 130.329C138.629 130.329 138.678 130.34 138.722 130.361C141.428 130.361 143.469 128.607 145.462 127.517C148.803 126.007 151.983 124.165 154.955 122.018C155.405 121.706 155.902 121.466 156.426 121.307C159.627 119.907 162.552 117.949 165.064 115.523C166.108 114.623 167.058 113.58 168.197 112.774C168.896 112.257 169.484 111.604 169.924 110.855C170.365 110.105 170.649 109.274 170.76 108.413C171.281 108.46 171.805 108.46 172.326 108.413C172.636 108.377 172.922 108.225 173.124 107.987C173.327 107.75 173.432 107.444 173.418 107.133C173.418 106.232 172.706 106.279 172.089 106.327C172.419 105.901 172.802 105.519 173.228 105.189C175.623 103.302 178.236 101.711 181.012 100.448C183.195 99.7372 184.809 97.9358 187.135 97.4618C187.419 97.4618 187.609 97.0351 187.847 96.7981C188.447 96.0055 189.232 95.3711 190.134 94.9498C191.035 94.5285 192.026 94.3331 193.02 94.3804C193.969 91.6783 196.675 92.1049 198.526 91.0146C199.19 91.5834 198.526 91.8679 198.526 92.1523C198.526 92.4367 198.526 92.1523 198.288 92.1523C196.603 94.8012 194.131 96.8568 191.216 98.0306C190.694 98.4013 190.202 98.8135 189.745 99.2632C189.052 99.9324 188.25 100.478 187.372 100.875C186.42 101.382 185.568 102.057 184.856 102.866C184.429 103.161 184.083 103.559 183.851 104.023C183.618 104.487 183.507 105.002 183.527 105.521C183.852 105.703 184.205 105.831 184.572 105.9C186.445 105.872 188.239 105.145 189.603 103.862C191.976 101.633 194.919 100.116 197.482 98.1255C199.219 96.828 201.098 95.7307 203.082 94.8544C203.082 94.8544 203.082 95.3759 203.082 95.4233C203.333 95.4731 203.591 95.4731 203.842 95.4233C203.842 95.4233 203.842 95.4233 203.842 95.1863C203.714 95.0486 203.549 94.95 203.367 94.9019H202.75C203.13 94.5226 203.462 93.9537 203.889 93.8589C204.784 93.6116 205.62 93.1859 206.346 92.6074C207.072 92.029 207.673 91.3098 208.113 90.4931C208.918 89.2776 209.969 88.2441 211.198 87.4591C212.128 86.7358 213.015 85.9602 213.856 85.1362C213.856 85.1362 213.856 84.5674 214.236 83.9985C213.812 83.9231 213.379 83.9231 212.955 83.9985C211.151 84.7096 209.347 85.4681 207.591 86.3214C206.954 86.7277 206.365 87.2048 205.835 87.7436C204.342 88.9873 202.615 89.9219 200.757 90.4931C200.757 90.4931 200.377 90.4931 200.187 90.4931C200.567 88.9761 202.418 88.9287 203.035 87.6487C203.462 87.3643 204.221 86.9377 204.174 86.748C204.087 86.5118 204.053 86.2592 204.075 86.0084C204.097 85.7575 204.174 85.5147 204.301 85.2972C204.428 85.0797 204.602 84.893 204.809 84.7504C205.017 84.6078 205.254 84.5129 205.503 84.4726C207.542 83.7678 209.415 82.6547 211.009 81.2015C211.626 80.7749 212.338 80.4905 212.955 80.1112C213.336 79.9088 213.674 79.6352 213.951 79.3053C215.333 77.341 217.314 75.8772 219.6 75.1336C220.693 74.6751 221.692 74.0158 222.542 73.19C223.159 72.7159 223.491 73.19 223.966 73.19L225.912 72.5263L223.586 75.0388C224.298 76.5558 224.773 76.8876 225.627 76.4136C226.874 75.728 228.079 74.9681 229.235 74.1381C230.089 73.5218 230.753 72.6211 231.987 72.5263C232.204 72.4998 232.405 72.3993 232.557 72.2418C233.847 70.6512 235.466 69.3576 237.303 68.4494C238.11 66.6005 239.819 66.648 241.385 66.5532C241.765 65.3206 240.863 65.5102 240.293 65.3206C241.527 64.5147 242.762 63.614 244.043 62.8555C244.419 62.54 244.864 62.3158 245.341 62.2007C245.819 62.0855 246.317 62.0825 246.796 62.1918C247.036 62.311 247.313 62.3331 247.57 62.2537C247.826 62.1742 248.042 61.9993 248.172 61.7651C248.789 60.9118 249.881 60.5326 250.356 59.4897C250.533 59.2019 250.807 58.9867 251.129 58.8824C251.451 58.7782 251.799 58.7918 252.112 58.9208V58.9208C251.817 59.2363 251.562 59.5866 251.352 59.9637C250.593 61.2437 251.02 62.1918 252.254 63.1399C253.868 61.9074 255.529 60.7696 257.001 59.3949C257.809 58.5202 258.846 57.8882 259.995 57.5699C261.144 57.2517 262.359 57.2598 263.503 57.5934C263.92 57.7382 264.375 57.721 264.78 57.5453C265.184 57.3696 265.508 57.0483 265.686 56.6453C265.783 56.2561 265.783 55.8493 265.686 55.4602H264.547C264.547 55.4602 264.547 55.0335 264.547 54.9387L266.066 53.801C266.873 53.2321 267.727 52.758 268.487 52.1892C269.584 51.1806 270.876 50.4063 272.284 49.9137C273.587 49.5069 274.856 48.9997 276.081 48.3967C277.267 47.8278 278.027 46.4531 279.118 45.5523C279.944 44.8716 280.873 44.3274 281.871 43.9405C283.596 43.2858 285.13 42.2102 286.333 40.8118C288.089 42.5658 288.848 42.5184 290.13 40.8118L290.747 40.1481L290.984 40.6221L291.459 40.1481C292.36 39.3896 293.262 38.6311 294.212 37.92C295.565 37.2475 297.069 36.9371 298.578 37.0193C298.863 37.0193 299.29 37.3985 299.575 37.7304C299.86 38.0622 300.524 39.2 300.999 39.911C300.667 40.9066 300.287 41.9021 300.049 42.945C300.032 43.1072 300.052 43.2713 300.11 43.4241C300.167 43.5768 300.259 43.7141 300.379 43.8247C300.499 43.9354 300.644 44.0164 300.801 44.0612C300.958 44.106 301.123 44.1134 301.284 44.0828C301.598 44.0388 301.903 43.9427 302.185 43.7983C303.561 42.9261 304.862 41.9431 306.077 40.8592C306.498 40.2382 307.113 39.775 307.827 39.5432C308.54 39.3113 309.311 39.324 310.017 39.5792C311.592 38.0227 313.487 36.8259 315.57 36.0712C317.658 34.1749 320.316 33.1794 322.215 30.9039C322.215 31.378 322.5 31.9943 322.832 32.2313C323.354 32.5788 323.932 32.8352 324.54 32.9898L328.86 31.0936C329.074 31.5271 329.328 31.9397 329.619 32.3261C329.824 32.6485 330.147 32.8782 330.52 32.9667C330.892 33.0552 331.284 32.9955 331.613 32.8002C332.467 32.3735 333.131 31.5202 334.223 31.7098C332.773 33.631 330.688 34.9751 328.338 35.5023C326.149 36.1848 324.083 37.2088 322.215 38.5363C321.598 38.9629 320.791 39.5792 320.648 40.1955C320.364 41.8547 319.225 42.4236 317.896 43.0872C316.844 43.5311 315.912 44.2181 315.178 45.0917C314.443 45.9653 313.927 47.0005 313.671 48.1123C313.671 49.013 313.956 49.5818 314.905 49.4396L318.845 48.7759C319.369 48.1378 319.86 47.4732 320.316 46.7849C321.098 45.7476 322.108 44.9042 323.268 44.3204C324.429 43.7367 325.709 43.4282 327.009 43.4191C327.673 43.4191 328.338 43.4191 328.765 42.8976C329.134 42.384 329.467 41.8454 329.761 41.2858C329.805 41.0189 329.805 40.7468 329.761 40.4799C330.013 40.4415 330.269 40.4415 330.521 40.4799C332.609 41.5228 334.033 40.4799 335.267 38.9629C335.599 38.5363 335.837 38.0622 336.169 37.5882C336.501 37.1141 336.596 36.7349 336.928 36.5926C339.586 35.5497 340.061 32.4683 342.244 31.0462C342.34 30.8717 342.39 30.6761 342.39 30.4773C342.39 30.2785 342.34 30.0828 342.244 29.9084C342.07 29.813 341.874 29.763 341.675 29.763C341.476 29.763 341.28 29.813 341.105 29.9084C340.071 30.2818 339.198 31.0023 338.637 31.9469C338.223 32.4623 337.78 32.953 337.308 33.4164L334.745 31.2358C336.888 30.0962 338.881 28.6949 340.678 27.0641C341.058 26.59 341.77 26.4478 342.339 26.1159L346.516 23.556C347.37 22.9872 348.035 21.8968 349.364 22.4183C349.364 22.4183 350.171 22.0864 350.36 21.7546C350.55 21.4228 351.357 19.6213 351.832 18.4836C352.496 18.2466 353.446 18.1992 353.825 17.7251C354.474 16.7599 355.015 15.7266 355.439 14.6437L358.049 13.9326C358.144 14.8626 358.144 15.7996 358.049 16.7296C357.936 17.6426 358.04 18.5695 358.353 19.4346C358.667 20.2997 359.181 21.0785 359.853 21.7072L362.891 25.4049C363.332 25.4857 363.787 25.429 364.195 25.2424C364.602 25.0558 364.942 24.7484 365.169 24.3619C366.166 22.9872 367.305 21.6598 368.302 20.285C369.773 20.285 369.583 22.0864 370.722 22.7501H374.187C374.899 24.5041 375.611 26.1634 374.187 27.9174C373.902 28.2492 374.187 28.9129 373.95 29.4344C375.279 30.1928 376.608 29.7662 377.889 29.9084C378.427 30.2798 378.894 30.7456 379.266 31.2832C379.706 32.1767 380.48 32.8615 381.421 33.1897C382.363 33.5179 383.395 33.4631 384.297 33.0372C385.836 32.5895 387.442 32.413 389.043 32.5157C389.59 32.5578 390.141 32.4823 390.656 32.2942C391.172 32.1061 391.642 31.8099 392.033 31.4254C393.447 30.2397 394.595 28.7698 395.403 27.1115C396.216 25.6142 397.391 24.3433 398.82 23.4138C401.431 23.4138 402.19 25.6419 403.899 26.8744L401.383 28.9129C401.383 29.861 401.668 30.8565 400.624 31.5676C399.58 32.2787 400.197 32.7528 400.624 33.369C400.788 33.7148 401.067 33.9933 401.412 34.1574C401.758 34.3215 402.151 34.3612 402.522 34.2698L404.801 33.8431C405.612 33.7202 406.373 33.3764 407.001 32.8495C407.629 32.3226 408.099 31.633 408.36 30.8565C408.672 30.0747 409.14 29.3648 409.737 28.7707C410.474 27.7936 411.051 26.7054 411.446 25.5471L414.626 24.599C414.669 23.6825 415.029 22.8093 415.643 22.1269C416.257 21.4445 417.088 20.9948 417.995 20.8539L420.131 20.1428C422.505 19.3369 422.979 18.7206 423.406 15.9237L420.226 13.6956C420.511 12.3208 420.796 11.0883 421.081 9.85574C420.253 8.96693 419.205 8.31268 418.043 7.9595C416.942 7.47596 415.817 7.04876 414.673 6.67955C413.439 6.3477 412.158 6.20549 410.639 5.92105C410.354 5.68402 409.927 5.20996 409.405 4.83071C408.884 4.47133 408.346 4.13905 407.791 3.83519C407.791 2.88708 407.791 2.03377 407.506 1.13306C408.395 0.860527 409.337 0.813154 410.249 0.995224C411.16 1.17729 412.012 1.58308 412.727 2.17599C412.848 2.28514 412.991 2.36702 413.147 2.41609C413.303 2.46517 413.467 2.48028 413.629 2.46042C415.195 2.03377 416.049 2.83967 416.951 3.93001C417.531 4.40384 418.245 4.68551 418.992 4.73591C420.416 4.73591 421.84 5.02033 423.216 5.16255C423.641 5.23416 424.074 5.23416 424.498 5.16255C425.894 4.90172 427.326 4.90172 428.722 5.16255C429.169 5.1642 429.609 5.27265 430.005 5.47883C430.402 5.68501 430.743 5.98292 431 6.3477C430.743 7.12611 430.646 7.94856 430.716 8.7654C430.716 9.33427 431.76 9.76093 432.282 10.235C432.804 10.709 431.902 10.9461 431.617 11.2305C430.431 12.226 430.241 12.7001 431.143 13.9326C431.44 14.3103 431.657 14.745 431.78 15.2099C431.902 15.6747 431.928 16.1597 431.855 16.6348C431.855 18.3888 431.475 20.0954 431.285 21.9442C431.95 22.6079 432.994 23.082 433.231 24.3145C433.31 24.5696 433.445 24.804 433.625 25.0007C433.806 25.1975 434.028 25.3517 434.275 25.4523C434.915 25.5953 435.513 25.8835 436.024 26.2946C436.534 26.7056 436.943 27.2284 437.218 27.8226C437.315 28.0803 437.506 28.292 437.752 28.4151C437.999 28.5382 438.283 28.5636 438.547 28.4862C438.864 28.3972 439.134 28.1901 439.301 27.9077C439.469 27.6254 439.522 27.2894 439.449 26.9692C439.388 26.3138 439.277 25.664 439.117 25.0256C439.117 24.5041 439.117 23.9827 438.832 23.319C439.769 22.9764 440.782 22.8969 441.761 23.0892C442.74 23.2814 443.648 23.738 444.385 24.4093C445.192 25.073 445.951 25.8315 446.853 26.6374C446.853 28.2492 446.853 28.2492 448.752 29.7662L457.485 25.0256L459.431 25.5471C461.234 25.9263 461.614 25.5471 462.563 24.0301L463.18 22.7975C464.747 22.7975 466.55 22.7975 467.262 20.2376C467.689 21.2805 467.927 21.565 467.879 21.802C467.637 23.9538 467.044 26.0516 466.123 28.0122C465.886 28.4862 465.743 29.0551 465.459 29.5292C464.605 31.6757 464.605 34.0669 465.459 36.2134C465.868 37.1411 466.412 38.0037 467.072 38.7733C466.448 40.9232 465.538 42.98 464.367 44.8887C463.365 46.4326 462.583 48.1077 462.041 49.8663C461.57 51.587 460.764 53.198 459.668 54.6069C459.107 55.2726 458.731 56.0735 458.577 56.9298C458.706 58.8634 459.073 60.7739 459.668 62.6185C459.806 63.2103 460.079 63.7623 460.466 64.2311C460.853 64.6999 461.343 65.0728 461.899 65.3206C461.899 65.3206 462.184 65.605 462.326 65.7946C462.66 68.012 462.514 70.2751 461.899 72.4315C461.818 72.9774 461.59 73.4911 461.239 73.9171C460.887 74.3431 460.427 74.6654 459.906 74.8492C458.814 75.3232 457.817 75.9869 456.773 76.5558C455.642 77.1173 454.684 77.9728 453.999 79.0323C453.314 80.0918 452.928 81.3161 452.881 82.5763C452.904 82.9078 452.904 83.2404 452.881 83.5718C452.865 83.7453 452.865 83.9198 452.881 84.0933L455.634 86.1792L453.118 89.545C453.118 91.1568 454.495 91.1568 455.254 91.8205L454.922 92.7212C454.447 93.4323 453.688 93.2426 453.023 93.2901H452.359V94.0485C452.074 95.2811 450.555 95.1863 450.081 96.2766C449.606 97.3669 450.081 97.8884 450.982 98.078C451.613 98.2467 452.274 98.2704 452.915 98.1472C453.556 98.0241 454.161 97.7573 454.685 97.367C454.99 97.0712 455.233 96.7164 455.396 96.324C456.39 94.4452 457.516 92.6393 458.766 90.9198C459.714 89.4982 460.961 88.3009 462.421 87.4117C462.84 87.0606 463.369 86.8681 463.916 86.8681C464.463 86.8681 464.992 87.0606 465.411 87.4117V87.4117L466.171 86.9851C466.171 86.9851 466.645 87.3169 466.598 87.4591C466.505 89.4947 467.07 91.5061 468.212 93.1952V93.1952L467.452 93.9537C466.313 94.5226 467.167 95.4233 467.072 96.2292C466.265 96.6559 465.174 96.7981 464.889 97.9358L464.32 98.2677H464.557L464.794 97.7936L465.981 98.3625C465.506 98.9313 465.174 99.4528 464.747 99.8795C464.515 100.153 464.34 100.47 464.234 100.812C464.128 101.154 464.093 101.514 464.13 101.871C464.188 102.418 464.106 102.971 463.89 103.477C463.674 103.983 463.331 104.426 462.896 104.762C462.373 105.142 462.136 105.947 461.851 106.374L463.56 109.029C463.56 109.029 462.848 109.029 463.275 109.408V108.934L464.177 109.266C464.842 109.645 465.269 109.55 465.554 108.744C465.838 107.938 465.838 108.744 465.981 108.413C465.981 109.029 465.649 109.692 465.364 110.261C465.021 110.792 464.623 111.284 464.177 111.731C465.269 113.675 465.316 113.722 464.177 115.239C463.038 116.756 463.56 117.467 462.563 118.32C461.567 119.174 462.896 120.074 463.608 119.932C464.133 119.799 464.68 119.781 465.213 119.879C465.745 119.977 466.25 120.189 466.693 120.501V122.587C466.378 122.635 466.058 122.635 465.743 122.587C464.652 122.208 463.655 121.828 462.848 123.061L463.418 124.246L460.285 125.526C460.48 126.577 461.075 127.512 461.946 128.133V128.133C461.899 128.844 461.899 129.556 461.946 130.267C461.946 130.788 461.614 130.693 461.424 130.883C460.736 131.453 460.198 132.184 459.859 133.011C459.52 133.837 459.389 134.735 459.478 135.623C459.478 136.429 460.712 137.235 461.377 136.714C463.065 135.69 464.934 134.998 466.883 134.675C468.022 134.012 467.974 131.926 469.968 131.973C470.1 132.859 469.94 133.764 469.512 134.55C469.083 135.337 468.411 135.963 467.595 136.335C468.259 138.041 470.822 136.809 471.154 138.847C470.514 139.136 469.81 139.253 469.11 139.186C468.411 139.12 467.741 138.872 467.167 138.468C467.041 138.358 466.889 138.281 466.725 138.245C466.561 138.209 466.391 138.215 466.23 138.262C466.069 138.31 465.923 138.397 465.805 138.515C465.686 138.634 465.6 138.781 465.554 138.942C465.981 139.463 466.455 140.08 466.977 140.601C467.5 141.123 467.642 141.407 467.974 141.36C470.49 141.36 471.914 143.54 474.144 144.062C474.714 144.062 474.904 145.199 474.429 145.389C473.977 145.563 473.582 145.859 473.289 146.244C472.995 146.629 472.815 147.088 472.768 147.57C472.479 148.296 472.096 148.981 471.629 149.608C474.026 151.189 476.786 152.135 479.65 152.358C480.194 152.417 480.743 152.301 481.216 152.026C482.694 150.992 484.287 150.133 485.963 149.466C486.553 149.191 487.085 148.804 487.529 148.328C489 146.906 490.282 146.859 491.611 148.328L493.794 150.604C493.794 151.22 493.557 152.073 493.415 153.116L495.028 154.017L505.375 142.071L507.986 144.773L511.071 142.355C511.322 142.31 511.579 142.31 511.83 142.355C512.59 143.161 513.207 144.014 514.014 144.725C514.82 145.436 516.054 144.725 517.051 145.531C518.048 146.337 518.902 145.768 520.041 145.863C520.254 146.879 520.254 147.928 520.041 148.945C520.041 149.94 519.567 150.888 519.567 151.836C519.67 152.722 519.551 153.619 519.219 154.447C518.888 155.275 518.355 156.007 517.668 156.577C515.921 159.844 513.715 162.845 511.118 165.489C510.889 165.71 510.707 165.975 510.585 166.269C510.462 166.562 510.402 166.878 510.406 167.196C510.501 168.06 510.4 168.934 510.113 169.754C509.826 170.574 509.358 171.32 508.745 171.936C508.581 172.089 508.465 172.287 508.413 172.505C508.185 172.782 508.032 173.114 507.97 173.467C507.907 173.82 507.937 174.184 508.057 174.522C508.176 174.86 508.381 175.162 508.651 175.399C508.921 175.635 509.248 175.798 509.599 175.871C510.114 176.025 510.637 176.152 511.166 176.25C511.166 176.535 510.691 176.914 510.786 177.104C511.055 177.733 511.173 178.416 511.132 179.099C511.091 179.782 510.891 180.446 510.549 181.038L513.776 185.4C515.433 185.155 517.122 185.526 518.522 186.443C518.554 186.731 518.51 187.024 518.393 187.29C518.277 187.556 518.092 187.787 517.858 187.96C517.241 188.528 516.671 189.192 516.007 189.808C515.603 190.204 515.281 190.676 515.061 191.197C514.841 191.718 514.727 192.277 514.725 192.842L516.482 194.075C516.054 194.976 515.722 195.497 515.437 196.066C515.695 196.66 516.085 197.187 516.579 197.606C517.073 198.026 517.657 198.326 518.285 198.484C518.45 198.491 518.615 198.466 518.77 198.409C518.925 198.352 519.067 198.265 519.187 198.152C520.279 196.54 521.797 196.967 523.269 197.346C524.74 197.725 525.547 198.01 526.639 198.341L528.537 197.156C529.065 197.306 529.55 197.577 529.954 197.947C530.358 198.318 530.669 198.777 530.863 199.29C530.863 200.332 529.914 200.427 529.392 200.901C528.191 202.393 526.517 203.43 524.645 203.841C524.171 203.841 523.743 204.409 523.316 204.741C522.401 205.514 521.529 206.337 520.706 207.206C520.171 207.853 519.68 208.534 519.234 209.245C519.234 210.572 521.37 210.098 520.279 211.52C520.706 211.52 520.896 211.805 521.085 211.52C522.48 211.403 523.813 210.894 524.93 210.051C527.066 208.368 529.571 207.215 532.239 206.685C535.114 206.059 537.798 204.759 540.071 202.892C540.945 202.263 541.951 201.841 543.013 201.66C544.279 201.553 545.508 201.181 546.621 200.569C546.984 200.32 547.402 200.16 547.839 200.103C548.276 200.045 548.72 200.091 549.136 200.238V200.238C549.136 200.569 548.804 201.044 548.899 201.138C550.275 202.655 550.987 204.741 552.981 205.879C554.262 205.879 555.734 205.879 556.398 204.22C557.063 202.561 556.683 201.802 554.832 200.048C555.165 199.77 555.585 199.618 556.018 199.618C556.452 199.618 556.872 199.77 557.205 200.048L558.771 201.233L560.195 202.418C560.195 203.509 560.195 204.362 560.195 205.263C560.15 206.251 560.415 207.229 560.955 208.06C561.273 208.496 561.559 208.956 561.809 209.434C562.821 211.341 563.281 213.491 563.138 215.645C562.768 218.856 562.117 222.028 561.192 225.126C560.195 228.207 559.815 231.478 559.056 234.607C558.655 236.07 558.131 237.498 557.49 238.873C556.303 241.765 554.974 244.657 553.788 247.596C552.601 250.535 551.177 253.048 549.801 255.75C547.7 259.285 545.386 262.688 542.871 265.942C541.352 268.312 539.786 270.683 538.41 273.148C536.776 275.984 534.782 278.597 532.477 280.922C530.462 283.183 528.711 285.664 527.256 288.318C527.104 288.601 526.992 288.904 526.923 289.218C526.795 290.974 526.095 292.639 524.93 293.959C525.051 294.361 525.194 294.757 525.357 295.144C525.584 295.583 525.673 296.08 525.614 296.57C525.555 297.06 525.35 297.521 525.025 297.894C524.094 298.96 523.355 300.179 522.842 301.497C522.642 301.877 522.538 302.3 522.538 302.729C522.538 303.158 522.642 303.581 522.842 303.962C523.026 304.368 523.083 304.82 523.007 305.26C522.931 305.699 522.724 306.106 522.414 306.427C521.642 307.476 520.802 308.474 519.899 309.413C517.98 311.435 515.671 313.048 513.112 314.154C512.827 314.154 512.59 314.628 512.257 314.628C510.419 315.144 508.771 316.182 507.511 317.615C505.992 318.895 504.379 319.985 502.765 321.217C500.413 322.801 498.289 324.699 496.452 326.859C494.174 327.617 493.082 329.845 491.231 331.173C489.534 332.514 487.947 333.988 486.485 335.581C484.112 337.999 481.739 340.322 479.413 342.834C477.192 344.813 475.187 347.022 473.432 349.424C472.768 350.419 471.392 350.562 471.012 351.936C470.632 353.311 469.635 353.88 468.876 354.781L466.455 357.388C466.045 357.892 465.584 358.353 465.079 358.763C462.753 360.469 461.282 362.982 459.146 364.783H458.909C455.278 369.531 450.996 373.744 446.189 377.299C443.436 379.906 440.351 382.039 437.408 384.599C436.791 386.021 434.987 386.069 434.18 387.538C433.374 389.008 431.855 389.482 430.716 390.43C429.576 391.378 428.485 392.516 427.251 393.369C426.181 394.125 425.316 395.135 424.735 396.308C423.363 398.537 421.612 400.511 419.562 402.139C416.856 404.367 414.341 406.88 411.541 408.681C411.67 409.513 411.576 410.364 411.267 411.147C410.959 411.93 410.447 412.617 409.784 413.137C406.842 415.555 404.231 418.305 401.241 420.675L400.434 421.244L391.464 428.07C389.043 429.872 386.717 431.673 384.249 433.522C383.253 433.522 383.347 434.66 382.683 434.897C382.446 434.47 382.208 434.375 381.923 434.897V435.608L371.719 443.714C367.755 447.187 363.534 450.356 359.094 453.195C358.053 453.995 357.099 454.901 356.246 455.897C355.433 456.613 354.577 457.278 353.683 457.888C352.458 458.569 351.27 459.313 350.123 460.117C347.133 462.487 343.953 464.573 340.631 466.706C337.308 468.839 334.84 470.925 331.897 472.964C329.904 474.338 327.91 475.618 325.822 476.803C324.825 477.372 323.544 477.562 322.5 478.036C321.455 478.51 321.123 478.747 321.028 479.221C320.696 480.596 319.509 480.691 318.608 481.212C316.851 482.255 316.567 482.065 315.807 479.648L317.848 477.277C318.341 476.629 318.993 476.118 319.741 475.794C320.49 475.47 321.309 475.344 322.12 475.429C322.441 475.483 322.77 475.474 323.088 475.4C323.406 475.327 323.706 475.192 323.971 475.002C326.107 473.343 328.195 471.541 330.236 469.835L330.521 469.456L330.283 466.99C329.985 466.942 329.68 466.942 329.382 466.99L318.845 472.679C316.424 473.959 313.861 474.812 311.488 476.092C309.115 477.372 307.833 478.036 305.982 478.937C305.196 479.262 304.387 479.531 303.562 479.743C303.583 479.474 303.583 479.205 303.562 478.937C303.562 478.51 303.562 477.941 303.182 477.752C302.754 477.408 302.211 477.239 301.663 477.277C301.158 477.404 300.677 477.612 300.239 477.894C298.115 479.165 295.577 479.556 293.167 478.984L292.55 480.928C289.18 482.445 285.763 484.009 282.251 485.668C281.542 485.946 280.779 486.06 280.02 486C279.213 486 278.406 485.384 277.552 485.336C276.725 485.452 275.913 485.658 275.131 485.953C275.298 485.447 275.538 484.968 275.843 484.531C276.157 484.232 276.368 483.841 276.445 483.415C276.522 482.989 276.461 482.549 276.271 482.16C275.938 481.497 275.748 480.786 276.271 480.311C276.743 479.775 277.052 479.116 277.161 478.41C277.27 477.705 277.175 476.983 276.887 476.329C276.749 475.926 276.638 475.515 276.555 475.097V475.097H276.318C275.416 473.959 273.897 474.386 272.711 473.769C272.176 473.724 271.642 473.858 271.192 474.149C270.005 474.67 268.866 475.334 267.632 475.808C267.044 476.041 266.414 476.154 265.781 476.14C264.879 476.14 264.784 476.14 264.072 474.338C264.834 473.844 265.401 473.102 265.678 472.238C265.954 471.375 265.924 470.442 265.591 469.598C264.737 467.844 263.835 465.995 260.845 466.422C261.759 465.698 262.63 464.922 263.455 464.099C263.697 463.876 263.865 463.585 263.937 463.265C264.009 462.944 263.981 462.61 263.857 462.306C263.733 462.001 263.519 461.742 263.244 461.563C262.969 461.383 262.645 461.292 262.316 461.302C260.694 461.109 259.051 461.371 257.57 462.06C256.336 462.771 255.244 463.625 253.82 464.62H252.017C252.017 464.336 251.732 464.146 251.78 463.956C252.064 462.297 252.396 460.638 252.729 458.837C251.872 458.592 251.101 458.11 250.505 457.448C249.909 456.786 249.512 455.969 249.359 455.092C249.288 454.844 249.273 454.584 249.314 454.33C249.355 454.076 249.451 453.835 249.596 453.622C250.02 453.134 250.326 452.555 250.491 451.931C250.655 451.306 250.674 450.652 250.545 450.019L248.979 448.455C244.86 449.446 240.864 450.893 237.066 452.769L233.649 454.57C233.174 454.191 233.269 453.812 233.649 453.527C234.028 453.243 235.12 452.674 235.879 452.247C236.54 451.923 237.105 451.435 237.521 450.828C237.937 450.222 238.189 449.519 238.252 448.787L236.829 446.748C236.829 446.179 236.829 445.373 237.446 444.994C237.857 444.639 238.137 444.156 238.241 443.623C238.344 443.09 238.265 442.538 238.015 442.055C237.941 441.632 237.941 441.198 238.015 440.775C238.917 440.111 239.819 439.495 240.626 438.784C241.003 438.471 241.309 438.08 241.522 437.638C241.735 437.197 241.85 436.714 241.86 436.224C241.843 435.764 241.719 435.313 241.496 434.91C241.274 434.506 240.959 434.161 240.578 433.901C239.228 434.197 238.05 435.015 237.303 436.177C237.063 436.844 236.627 437.424 236.051 437.838C235.474 438.253 234.786 438.484 234.076 438.5C233.262 438.514 232.481 438.818 231.872 439.357C231.263 439.896 230.866 440.634 230.753 441.439C229.947 441.723 229.235 442.008 228.523 442.197C227.68 442.397 226.909 442.823 226.292 443.43C225.289 444.256 224.19 444.956 223.017 445.516C219.647 447.222 216.277 448.976 213.05 450.967C212.195 451.489 211.483 452.2 210.629 452.626C209.775 453.053 209.158 453.954 208.018 453.812C207.805 453.815 207.595 453.869 207.405 453.967C207.216 454.066 207.052 454.207 206.927 454.38C205.16 456.365 203.014 457.977 200.614 459.121C197.387 461.254 194.017 463.245 190.789 465.426C189.852 466.157 188.979 466.966 188.179 467.844C187.565 468.466 186.915 469.051 186.233 469.598C185.711 470.024 185.189 470.214 185.378 471.115C185.568 472.015 184.714 471.968 184.239 472.11C182.624 472.743 180.956 473.235 179.256 473.58C177.572 473.84 175.957 474.436 174.51 475.334C173.465 475.998 172.421 476.993 170.95 476.614C170.95 476.092 170.95 475.571 171.187 474.86C169.953 474.228 168.587 473.898 167.2 473.898C165.814 473.898 164.447 474.228 163.213 474.86L161.267 473.39C160.824 473.369 160.38 473.437 159.964 473.592C159.548 473.747 159.168 473.985 158.847 474.291C158.596 474.508 158.276 474.627 157.945 474.627C157.613 474.627 157.293 474.508 157.043 474.291C156.677 474.048 156.248 473.919 155.809 473.919C155.37 473.919 154.941 474.048 154.575 474.291C153.398 474.809 152.104 475.005 150.825 474.86C150.46 474.505 150.208 474.051 150.098 473.554C149.988 473.057 150.027 472.538 150.208 472.063C150.496 471.246 150.615 470.38 150.558 469.516C150.501 468.653 150.269 467.809 149.876 467.038C149.665 466.543 149.556 466.011 149.556 465.473C149.556 464.936 149.665 464.404 149.876 463.909C150.636 461.776 150.303 461.112 148.547 459.69C148.261 459.448 147.927 459.269 147.568 459.163C147.208 459.057 146.831 459.026 146.459 459.074C145.593 459.249 144.749 459.519 143.943 459.88C143.469 459.88 143.041 460.448 142.519 460.685C139.909 461.871 139.434 461.159 138.39 459.643L137.631 458.552C136.387 458.11 135.061 457.948 133.748 458.08C132.435 458.211 131.167 458.631 130.037 459.311C129.591 459.615 129.057 459.765 128.518 459.737C126.77 459.722 125.039 460.077 123.439 460.78C122.445 461.242 121.338 461.407 120.252 461.255C119.166 461.104 118.146 460.643 117.316 459.927C116.57 459.281 115.641 458.883 114.658 458.789C113.519 458.789 113.329 457.983 113.852 456.893C114.374 455.803 115.275 454.238 116.082 452.911C116.364 452.455 116.513 451.93 116.513 451.394C116.513 450.858 116.364 450.333 116.082 449.877C115.834 448.933 115.706 447.961 115.703 446.985C115.712 446.572 115.633 446.161 115.47 445.781C115.307 445.401 115.065 445.06 114.759 444.782C114.453 444.503 114.091 444.293 113.697 444.166C113.303 444.04 112.886 443.998 112.475 444.046C110.719 444.046 109.01 444.046 107.254 444.378C106.514 444.473 105.764 444.473 105.023 444.378C103.482 443.939 101.869 443.81 100.277 443.999C99.5241 444.112 98.7569 443.925 98.1413 443.477C96.2391 442.443 94.4563 441.203 92.8253 439.779C92.4149 439.271 91.9037 438.853 91.3238 438.551C90.7439 438.249 90.1078 438.07 89.4555 438.025C88.9334 438.025 88.4588 437.551 88.0316 437.314C87.6381 436.347 87.4969 435.296 87.6214 434.26C87.7459 433.223 88.1321 432.235 88.7435 431.389C89.3131 430.488 89.8351 429.54 90.3098 428.592C90.9057 427.676 91.6426 426.86 92.4932 426.174C93.4848 425.211 94.1629 423.972 94.4392 422.619C91.449 422.619 88.5063 421.67 86.1331 424.041L84.0921 423.567C84.0921 422.808 84.0921 422.144 84.0921 421.528C84.424 420.173 84.424 418.759 84.0921 417.404C83.8711 416.791 83.8162 416.131 83.9329 415.49C84.0496 414.849 84.3337 414.25 84.7566 413.754C87.1773 410.009 90.0725 406.595 92.3033 402.708C93.0312 401.761 93.9137 400.944 94.9137 400.29C95.863 399.484 95.7206 398.536 94.4865 398.11C93.7988 397.917 93.1018 397.759 92.3981 397.636C89.5504 399.532 88.6961 403.23 85.3737 404.699L83.4751 401.95C83.063 402.176 82.6666 402.429 82.2885 402.708L77.0201 408.065C76.576 408.46 76.2515 408.971 76.0837 409.541C75.9159 410.111 75.9114 410.716 76.0708 411.289C76.1891 412.042 76.1891 412.81 76.0708 413.564C75.9982 414.085 76.1347 414.613 76.4506 415.034C77.1625 415.982 76.4506 416.693 76.0234 417.356C75.9087 417.473 75.7719 417.565 75.6212 417.628C75.4705 417.691 75.3087 417.723 75.1454 417.723C74.982 417.723 74.8203 417.691 74.6696 417.628C74.5188 417.565 74.3821 417.473 74.2673 417.356C73.3181 416.645 72.4636 415.792 71.5144 414.939C71.9416 413.185 71.0397 411.431 71.7992 409.582C71.8728 409.267 71.8813 408.941 71.8242 408.623C71.7671 408.305 71.6455 408.002 71.4669 407.733C71.0062 407.038 70.7373 406.233 70.6873 405.401C70.6373 404.569 70.808 403.738 71.1821 402.993V402.471C69.9006 401.618 70.043 399.959 69.426 398.536L68.2394 398.157C65.2967 397.304 65.2967 397.351 63.0184 399.058C62.4489 398.347 63.0186 397.778 63.4457 397.351L67.0055 393.606C69.3312 391.141 71.7518 388.866 74.4097 386.685C77.0677 384.504 79.9629 381.423 82.6683 378.768C82.8031 378.615 82.8993 378.432 82.9488 378.234C82.9984 378.036 82.9998 377.829 82.953 377.63C82.8182 377.475 82.6501 377.351 82.4611 377.269C82.2722 377.187 82.0672 377.149 81.8613 377.156C80.9121 377.156 79.9629 377.393 78.9661 377.536L77.115 377.867L76.4506 377.062C76.0234 376.587 75.6911 375.876 75.169 375.687C74.743 375.571 74.2937 375.572 73.868 375.688C73.4422 375.805 73.0556 376.034 72.7485 376.35C71.8941 377.204 71.1347 378.104 70.3278 379.005C69.5209 379.906 69.0937 380.57 68.3818 381.233C66.9101 382.341 65.5 383.528 64.1577 384.789C63.0743 386.303 62.0913 387.887 61.215 389.529C60.6454 390.335 60.1232 391.188 59.0315 391.425C58.4913 391.325 58.0043 391.036 57.6568 390.611C57.3093 390.186 57.1237 389.651 57.1331 389.103C57.1474 388.668 57.2727 388.243 57.4969 387.87C57.7211 387.497 58.0369 387.187 58.4145 386.969C59.4509 386.164 60.3907 385.241 61.215 384.22C62.3441 382.625 63.7801 381.272 65.4391 380.238C66.0087 379.953 66.3409 379.29 66.8156 378.816C67.2902 378.341 67.6699 377.725 68.2394 377.583C69.9956 377.014 70.7075 375.497 71.6568 374.17C71.9714 373.656 72.1378 373.065 72.1378 372.463C72.1378 371.861 71.9714 371.27 71.6568 370.757C71.0464 369.722 70.3307 368.753 69.521 367.865C69.1076 367.439 68.6009 367.115 68.041 366.917C67.481 366.72 66.8828 366.655 66.2934 366.727C65.8733 366.126 65.6099 365.43 65.527 364.701C65.4442 363.973 65.5445 363.235 65.8189 362.555C66.5308 360.943 67.1478 359.379 69.0464 358.668C69.9336 358.283 70.7513 357.754 71.4669 357.104C73.0664 355.778 74.9775 354.881 77.0201 354.496C77.5484 354.394 78.0597 354.219 78.539 353.975C81.9563 352.221 85.1838 350.277 88.4113 348.239C90.1199 347.148 91.8286 345.916 93.6322 344.968C97.8565 342.692 101.606 339.706 105.64 337.098C107.753 335.731 109.589 333.978 111.051 331.931C111.322 331.399 111.544 330.844 111.716 330.272C110.565 329.894 109.337 329.818 108.149 330.05C106.96 330.283 105.851 330.816 104.928 331.599C104.446 332.27 103.787 332.793 103.024 333.111C102.262 333.429 101.426 333.529 100.609 333.401V333.401L102.745 331.504C104.169 330.319 105.64 329.229 107.017 327.996C109.2 326.005 111.194 323.872 113.472 321.976C115.308 320.414 116.907 318.593 118.218 316.572C119.165 315.104 120.28 313.752 121.541 312.542C122.442 311.736 122.442 311.736 122.87 309.793C122.3 309.129 121.683 309.413 121.113 309.793C117.646 311.558 114.396 313.721 111.431 316.24C109.917 317.341 108.615 318.706 107.586 320.269C107.349 320.791 106.637 321.123 106.068 321.407C104.3 322.472 102.632 323.694 101.084 325.057C98.9509 327.016 96.5145 328.617 93.8695 329.798C93.2999 329.371 93.8695 329.039 93.8695 328.755C95.8155 326.859 97.7141 324.915 99.7075 323.066C100.249 322.526 100.836 322.034 101.464 321.597C103.832 320.213 105.707 318.125 106.827 315.624C106.827 314.96 107.681 314.438 108.014 313.775C108.161 313.298 108.241 312.804 108.251 312.305C107.586 311.547 106.969 311.973 106.495 312.305C105.131 313.399 103.832 314.57 102.603 315.813C101.461 316.976 100.168 317.981 98.7582 318.8C97.714 319.369 96.8597 320.222 95.8155 320.886C95.2386 321.145 94.6332 321.336 94.0119 321.454C94.5861 320.198 95.4286 319.081 96.4801 318.183C97.2395 317.141 98.2362 316.287 98.2362 314.96C97.7615 314.344 97.3343 314.628 97.0021 314.96C96.2902 315.456 95.6087 315.994 94.9612 316.572C93.5892 317.805 92.0755 318.871 90.4521 319.748C89.6012 320.247 88.8057 320.835 88.079 321.502C86.4178 322.877 84.8515 324.441 83.3327 325.721C80.2001 328.139 77.3999 330.888 74.4097 333.401C73.7452 333.97 73.1756 334.728 72.2263 334.775C71.277 334.823 71.2296 334.775 71.0872 334.491C70.776 334.068 70.6401 333.542 70.7076 333.021C70.8408 332.486 71.1604 332.016 71.6093 331.694C74.2498 329.138 76.7231 326.414 79.0136 323.54C80.0513 322.559 80.9316 321.423 81.6241 320.174C82.181 319.258 82.8685 318.428 83.6649 317.709C84.8089 316.527 86.0129 315.403 87.2722 314.344C87.8569 313.839 88.3344 313.222 88.6768 312.53C89.0191 311.838 89.2193 311.085 89.2656 310.314L87.4621 309.129C87.2051 309.195 86.9516 309.274 86.7027 309.366L73.8875 320.127L72.6061 321.075C71.1822 321.928 70.8025 321.834 69.1887 320.127C72.1752 317.363 74.3845 313.865 75.5963 309.982C75.2023 309.933 74.8037 309.933 74.4097 309.982C71.9011 311.026 69.5772 312.467 67.5275 314.249C66.2935 315.149 65.012 315.955 63.7305 316.809C63.9678 315.244 65.4391 314.628 66.3409 313.68C68.5209 311.656 70.392 309.325 71.8942 306.759C72.4054 305.81 73.0802 304.96 73.8875 304.246C74.7049 303.622 75.357 302.807 75.7872 301.874C76.2174 300.94 76.4125 299.915 76.3556 298.889C76.339 297.936 76.4186 296.983 76.593 296.045C76.0311 295.282 75.21 294.751 74.2837 294.55C73.3574 294.349 72.3896 294.493 71.5619 294.955C69.7734 295.734 67.8906 296.276 65.9613 296.566C64.9996 296.705 64.0778 297.044 63.2558 297.562C62.5316 298.025 61.6758 298.238 60.8188 298.17C59.9618 298.101 59.1509 297.754 58.5095 297.183C57.6552 296.519 56.8482 295.808 56.0413 295.097C55.2345 294.386 54.2853 293.438 53.3361 292.537C52.6098 292.802 51.9105 293.135 51.2477 293.532C50.7427 293.944 50.1303 294.203 49.4827 294.279C48.8352 294.355 48.1794 294.244 47.5929 293.959V293.959C47.8302 293.106 48.1151 292.3 48.3998 291.304C47.8002 290.675 47.3353 289.93 47.0334 289.115C46.7314 288.299 46.5989 287.432 46.6437 286.564C46.6437 285.805 45.9792 284.999 45.6944 284.193C45.3695 283.554 45.2455 282.832 45.3387 282.122C45.4318 281.411 45.7379 280.745 46.2166 280.211C46.7987 279.438 47.2478 278.572 47.5455 277.651C47.649 277.394 47.6861 277.115 47.6536 276.839C47.6211 276.564 47.5199 276.301 47.3594 276.075C47.1989 275.848 46.9841 275.666 46.7347 275.544C46.4853 275.422 46.2093 275.364 45.9318 275.376C45.086 275.452 44.2633 275.693 43.5111 276.087C42.2138 276.751 40.9798 277.462 39.809 278.22C38.5118 279.036 37.0216 279.494 35.4899 279.548C34.1134 279.548 32.8794 279.548 32.0725 278.268C31.2656 276.988 30.2689 277.746 29.3671 277.035C29.682 275.602 30.3697 274.278 31.3606 273.195C32.0202 272.594 32.5467 271.862 32.9064 271.045C33.266 270.229 33.4508 269.347 33.449 268.455L30.7435 266.606C28.7026 266.274 27.8008 268.265 25.7125 269.024L27.6585 266.274C27.6869 266.117 27.6869 265.957 27.6585 265.8C27.1838 263.335 26.8041 263.003 24.5259 263.05H23.2444L21.2509 263.382C20.8924 263.06 20.6249 262.65 20.475 262.193C20.325 261.735 20.298 261.246 20.3966 260.775C20.6076 259.951 20.6076 259.087 20.3966 258.262C20.1506 257.791 20.0776 257.248 20.1903 256.729C20.3031 256.209 20.5943 255.746 21.0137 255.418C21.3459 255.134 21.2984 254.423 21.4408 253.901C21.5665 253.232 21.8351 252.598 22.2282 252.041C22.6213 251.485 23.1297 251.02 23.7189 250.677C25.4414 249.527 27.0329 248.191 28.4653 246.695H28.1805C29.7652 246.014 31.2126 245.05 32.4521 243.851C33.6862 242.571 35.3475 241.67 36.6764 240.485C37.784 239.766 38.5671 238.643 38.8597 237.356C39.1445 236.124 40.5684 235.365 41.66 234.797C42.3077 234.47 42.927 234.089 43.5111 233.659C44.2751 232.889 45.2802 232.404 46.359 232.284C46.6831 232.252 46.9936 232.138 47.2608 231.952C49.8713 230.388 52.4817 228.871 55.0447 227.212C55.6253 226.723 56.3333 226.411 57.0855 226.311C57.4023 226.274 57.7005 226.142 57.94 225.932C61.9269 222.708 66.5782 220.527 70.4702 217.209C70.9353 216.744 71.4625 216.345 72.0366 216.024C73.3423 215.452 74.4255 214.47 75.1216 213.227C75.4978 212.562 76.0086 211.982 76.6215 211.525C77.2344 211.068 77.9359 210.743 78.6814 210.572C79.9102 210.176 81.0088 209.455 81.8613 208.486C83.5606 206.951 85.369 205.541 87.2722 204.267C87.8593 203.915 88.3574 203.432 88.7277 202.857C89.0981 202.281 89.3309 201.629 89.4079 200.949C88.8384 200.285 88.3164 200.522 87.8417 200.949C85.9432 202.039 84.0447 203.082 82.1936 204.267C80.515 205.119 78.9251 206.136 77.4473 207.301C76.7214 207.955 75.7659 208.296 74.7894 208.249C73.5896 208.164 72.402 208.537 71.4669 209.292C70.7688 209.807 70.0216 210.251 69.2361 210.62C68.7233 210.759 68.1827 210.759 67.6699 210.62C67.4646 210.547 67.2463 210.518 67.0291 210.534C66.8119 210.551 66.6006 210.612 66.4086 210.715C66.2165 210.817 66.0478 210.959 65.9136 211.13C65.7794 211.302 65.6825 211.499 65.629 211.71C65.0594 213.559 63.3982 213.985 62.0218 214.791C59.7435 213.938 58.3672 216.356 56.3263 216.403C56.1666 216.423 56.0126 216.476 55.8739 216.557C55.7352 216.639 55.6146 216.748 55.5193 216.877C51.9121 220.243 47.5456 222.613 43.701 225.6C43.2781 225.939 42.7683 226.152 42.2297 226.216C38.7072 226.608 35.4578 228.299 33.1167 230.957C32.8287 231.25 32.4914 231.491 32.12 231.668C30.3713 232.068 28.7439 232.881 27.3737 234.038C25.1904 235.508 23.102 237.025 20.8713 238.399C19.3199 239.216 18.0104 240.426 17.0741 241.907C17.0741 242.239 16.3621 242.381 15.84 242.713C15.4603 242.144 15.1282 241.623 14.7485 241.149C14.3843 240.488 13.8821 239.914 13.2761 239.464C12.6701 239.014 11.9746 238.699 11.2363 238.542C10.0022 238.542 9.76478 237.451 10.5242 236.456C12.4486 233.575 14.9949 231.161 17.9759 229.392C20.444 227.686 22.9597 225.979 25.4752 224.367C26.9466 223.467 28.5127 222.661 29.9366 221.712C30.4264 221.482 30.9344 221.291 31.4555 221.144C32.0995 221.008 32.7117 220.75 33.2591 220.385C34.9848 218.908 36.9622 217.751 39.0971 216.972C39.8687 216.587 40.6 216.127 41.2804 215.597C42.8827 214.277 44.6545 213.177 46.5487 212.326C47.7234 211.772 48.8506 211.121 49.9187 210.382C50.2984 210.145 50.5832 209.719 50.9629 209.624C54.3328 209.055 56.4686 206.258 59.4113 204.883C60.8276 204.082 62.1628 203.145 63.3982 202.086C65.8465 200.377 68.3812 198.795 70.9924 197.346C74.4572 195.544 77.5897 193.127 80.8646 191.088C81.5115 190.689 82.1301 190.245 82.7158 189.761C85.5524 187.285 88.6947 185.182 92.066 183.503C92.826 183.069 93.488 182.483 94.0107 181.782C94.5334 181.08 94.9055 180.278 95.1036 179.426C95.1691 178.891 95.0339 178.351 94.7239 177.909C94.2341 177.412 93.6932 176.967 93.1102 176.582L74.4571 187.011C73.671 187.424 72.9103 187.883 72.1789 188.386C70.0285 189.873 67.794 191.234 65.4866 192.463C63.2084 193.696 61.0725 195.26 58.8892 196.682C58.2456 197.097 57.5803 197.477 56.8958 197.82C52.2537 199.992 47.7658 202.479 43.4636 205.263C41.66 206.495 39.6666 207.396 37.8155 208.534C35.9644 209.671 33.4489 211.378 31.2656 212.848L24.5259 217.588C23.1969 218.489 21.9154 219.484 20.6339 220.433C18.7353 218.299 18.1183 217.92 15.8875 217.967C15.1204 217.946 14.3631 218.143 13.7043 218.536C11.6634 220.243 8.95795 221.001 7.01196 222.518C5.82159 223.28 4.85518 224.343 4.21165 225.6C3.64649 226.628 2.97855 227.597 2.21813 228.492C-0.249949 227.259 -0.629603 225.6 0.936682 223.751C1.36385 223.277 1.98087 222.898 2.26564 222.329C2.42778 221.99 2.66665 221.694 2.96322 221.464C3.25979 221.233 3.60584 221.075 3.97425 221.001C5.12736 220.677 6.17497 220.056 7.01196 219.2C7.78967 218.299 8.78677 217.613 9.90714 217.209C10.7615 217.209 11.3786 215.929 12.043 215.218C12.7075 214.507 13.2296 213.701 14.3687 213.559C14.5783 213.542 14.7814 213.478 14.9624 213.372C15.1434 213.265 15.2975 213.118 15.4129 212.942C16.5263 211.737 17.9085 210.812 19.4473 210.24C21.7801 209.103 23.9249 207.617 25.8073 205.832C26.9217 204.644 27.8354 203.283 28.5128 201.802C28.6913 201.341 28.9855 200.932 29.3671 200.617C31.3269 199.451 33.5097 198.708 35.7746 198.436C36.631 198.363 37.4755 198.188 38.2902 197.915C39.9694 197.399 41.5673 196.649 43.0365 195.687C45.1626 194.205 47.4001 192.89 49.7288 191.752C51.1631 191.022 52.5291 190.165 53.8106 189.192C55.1318 188.23 56.5665 187.434 58.0824 186.822C59.5819 186.137 60.8511 185.034 61.737 183.646C62.013 183.039 62.22 182.403 62.354 181.749C60.0337 181.559 57.7272 182.253 55.899 183.693C55.187 184.072 54.6174 184.594 53.8106 184.452V184.689C53.6787 184.935 53.4608 185.124 53.1982 185.22C52.9356 185.317 52.6468 185.313 52.3867 185.21V185.21C52.3867 184.309 52.3867 183.456 52.3867 182.84C53.8019 181.955 55.1649 180.99 56.4686 179.948C57.5603 179 59.2215 179.426 60.1233 178.194C62.0692 177.578 63.1609 175.776 64.8696 174.876C66.5782 173.975 68.5243 173.596 70.2329 172.695C71.7145 171.819 73.141 170.853 74.5046 169.803C74.9657 169.349 75.5148 168.994 76.1183 168.76C76.9755 168.515 77.7463 168.034 78.3423 167.371C78.9383 166.709 79.3354 165.892 79.4882 165.015C79.2034 164.494 78.8238 163.83 78.3966 163.166C78.9326 161.998 79.8313 161.034 80.9595 160.417L82.5259 159.279C82.944 159.006 83.2411 158.584 83.356 158.098C83.4708 157.613 83.3946 157.102 83.1429 156.672C79.868 155.913 79.7255 155.676 77.732 159.042L74.7418 160.227L74.7894 160.18ZM114.848 140.459H114.611H114.848ZM508.081 189.714V190.235V189.666H508.603V189.334L508.081 189.714ZM415.195 26.353C414.452 26.3055 413.707 26.3055 412.964 26.353C412.775 26.4125 412.603 26.5169 412.462 26.6572C412.322 26.7975 412.217 26.9696 412.157 27.1589C412.157 27.7277 412.585 27.8226 412.964 27.8226C413.445 27.8436 413.923 27.7361 414.349 27.5111C414.774 27.2861 415.132 26.9518 415.385 26.5426L415.765 26.0685L415.195 26.353ZM74.5995 404.083C75.0614 403.854 75.4922 403.568 75.8811 403.23C77.5897 401.57 79.2034 399.769 80.9595 398.11C83.1222 395.509 85.6857 393.269 88.5536 391.473C89.6762 390.791 90.5816 389.805 91.1642 388.629C91.5177 387.969 92.0021 387.388 92.588 386.922L99.9923 380.475C100.432 379.907 100.799 379.285 101.084 378.626C100.372 378.626 99.8974 378.626 99.6126 378.626C99.0567 378.96 98.5984 379.434 98.2837 380.001C97.9665 380.809 97.3566 381.469 96.5749 381.849C95.7889 382.262 95.0282 382.721 94.2968 383.224C92.9204 384.22 91.5438 385.31 90.1674 386.353C89.7877 388.249 88.1265 388.676 86.75 389.482L85.7058 390.288C82.3517 393.487 79.1824 396.874 76.2132 400.433C75.6359 401.087 75.1563 401.822 74.7894 402.613C74.6721 403.112 74.6721 403.631 74.7894 404.13H74.5521L74.5995 404.083ZM243.236 441.533C244.081 441.052 244.971 440.655 245.894 440.348C246.614 440.192 247.303 439.92 247.935 439.542C251.476 437.423 255.21 435.645 259.089 434.233C259.598 434.074 260.079 433.834 260.513 433.522L263.55 431.057C264.5 430.203 264.5 430.014 263.55 428.165C262.918 428.121 262.284 428.121 261.652 428.165C261.272 428.165 260.655 428.165 260.56 428.639C259.848 430.251 258.282 430.63 257.001 431.294C253.298 433.285 249.454 435.086 245.704 436.983C244.909 437.361 244.147 437.805 243.426 438.31C242.975 438.589 242.574 438.941 242.239 439.353C242.138 439.442 242.058 439.551 242.002 439.674C241.947 439.796 241.918 439.929 241.918 440.064C241.918 440.198 241.947 440.331 242.002 440.454C242.058 440.577 242.138 440.686 242.239 440.775C242.595 441.085 242.995 441.341 243.426 441.533H243.236ZM234.36 82.7185L237.92 79.9216C238.347 79.5898 238.68 79.0209 239.154 78.8313C241.656 77.5302 243.919 75.8151 245.847 73.7588C246.498 73.0144 247.288 72.4027 248.172 71.9574C250.878 70.5778 253.384 68.8397 255.624 66.7902C257.092 65.6638 258.444 64.3933 259.658 62.9977C259.744 62.8118 259.788 62.6097 259.788 62.4051C259.788 62.2006 259.744 61.9985 259.658 61.8126C259.627 61.6791 259.568 61.5539 259.483 61.4457C259.399 61.3375 259.293 61.2488 259.171 61.1857C259.049 61.1226 258.915 61.0867 258.778 61.0803C258.641 61.074 258.504 61.0973 258.377 61.1489C256.704 61.5882 255.159 62.4167 253.868 63.5666C252.677 64.6938 251.373 65.6947 249.976 66.5532C248.647 67.4539 247.84 68.9708 246.131 69.4449C245.415 69.7088 244.812 70.211 244.423 70.8671C243.626 72.0608 242.433 72.9341 241.053 73.3322C240.233 73.6193 239.463 74.0354 238.775 74.5647C237.113 75.9395 235.547 77.4565 234.028 78.9261C233.546 79.3577 233.022 79.7389 232.462 80.0638L224.583 84.8044C222.685 85.8947 220.786 86.9377 218.935 88.1228C217.406 88.9481 216.013 90.0033 214.806 91.2516C213.518 92.5768 212.085 93.7535 210.534 94.7596C208.161 96.6559 205.788 98.4099 203.177 100.211C201.516 101.396 199.807 102.534 198.051 103.577C197.148 103.967 196.421 104.676 196.01 105.568C195.773 106.232 195.061 106.327 194.491 106.611C191.405 107.666 188.587 109.381 186.233 111.636C185.934 111.944 185.6 112.215 185.236 112.442C182.91 114.054 180.49 115.618 178.259 117.183C177.676 117.638 177.136 118.146 176.645 118.7C176.733 118.978 176.925 119.213 177.181 119.354C177.438 119.495 177.739 119.532 178.022 119.458C180.224 118.864 182.31 117.902 184.192 116.614C187.307 114.306 190.61 112.26 194.064 110.498C196.76 109.275 199.145 107.46 201.041 105.189C202.527 103.445 204.574 102.271 206.832 101.871C207.804 101.754 208.715 101.34 209.442 100.685C210.137 100.009 210.96 99.4767 211.863 99.121C213.761 98.3174 215.56 97.2994 217.226 96.087C218.84 94.7596 220.311 93.1952 221.973 91.8679C223.634 90.5405 226.197 88.8339 228.238 87.1273C230.279 85.4207 232.32 83.9511 234.36 82.7185ZM82.953 161.27C83.2853 162.503 84.0447 162.882 84.8042 162.74C87.4601 162.611 89.9907 161.573 91.971 159.8C93.0089 158.539 94.4818 157.71 96.1003 157.478C97.9739 157.102 99.6547 156.078 100.847 154.586C101.143 154.263 101.355 153.872 101.464 153.448C101.464 153.164 101.464 152.642 101.464 152.547C101.308 152.416 101.125 152.322 100.927 152.273C100.73 152.223 100.524 152.22 100.325 152.263L91.9236 156.482L90.4521 157.146C87.736 158.085 85.2 159.48 82.953 161.27V161.27ZM101.416 171.51C102.935 172.837 102.935 172.79 103.647 172.837C107.046 172.724 110.341 171.638 113.14 169.708C113.76 169.266 114.265 168.68 114.611 168.002C114.805 167.806 114.914 167.542 114.914 167.267C114.914 166.992 114.805 166.727 114.611 166.532L113.424 165.679C111.497 166.302 109.61 167.046 107.776 167.907C105.64 168.902 103.789 170.182 101.606 171.51H101.416ZM242.049 431.768C243.568 433.996 243.568 433.949 245.657 433.332C247.113 432.912 248.503 432.29 249.786 431.483C251.352 430.488 252.966 429.54 254.532 428.592C254.921 428.424 255.234 428.117 255.41 427.732C255.585 427.346 255.611 426.909 255.482 426.506C255.226 426.149 254.857 425.89 254.435 425.769C254.012 425.649 253.562 425.674 253.156 425.842L252.302 426.364C251.257 426.932 250.166 427.454 249.169 428.118C248.538 428.697 247.781 429.123 246.957 429.361C246.134 429.6 245.266 429.645 244.423 429.492L242.049 431.768ZM105.973 149.419C106.348 149.726 106.763 149.981 107.207 150.177C108.87 150.417 110.562 150.028 111.953 149.087C112.617 148.708 113.187 147.996 113.899 147.949C115.156 147.671 116.348 147.156 117.411 146.432C117.411 146.432 117.696 146.1 117.791 146.005V143.92C117.242 143.822 116.679 143.822 116.13 143.92C114.326 144.631 112.57 145.484 110.814 146.29C109.058 147.096 108.441 147.333 107.302 147.949C106.811 148.394 106.366 148.886 105.973 149.419ZM93.3475 417.593L96.0529 419.964C96.8299 419.789 97.5286 419.366 98.0427 418.759C98.5567 418.151 98.8579 417.392 98.9006 416.598C99.0543 416.132 99.0216 415.626 98.8092 415.184C98.5968 414.742 98.2213 414.399 97.7615 414.228C97.3082 413.96 96.8047 413.788 96.2822 413.723C95.7597 413.658 95.2293 413.7 94.7239 413.848L93.3475 417.593ZM110.339 384.409C108.771 384.786 107.31 385.516 106.068 386.543C105.317 387.493 104.23 388.121 103.03 388.297C100.837 388.508 98.8118 389.562 97.3819 391.236C97.3819 391.236 97.3818 391.805 97.1445 392.137C96.9071 392.468 97.9513 392.137 98.1887 392.137C99.8499 391.378 101.511 390.525 102.935 389.671C103.81 389.051 104.748 388.527 105.735 388.107C107.098 387.572 108.364 386.819 109.485 385.879C109.485 385.879 109.912 385.452 110.339 384.457V384.409ZM248.599 64.9887C247.806 64.7417 246.967 64.6774 246.145 64.8006C245.323 64.9237 244.539 65.2312 243.853 65.6998C243.325 66.0289 242.921 66.5245 242.706 67.1083C242.491 67.6921 242.477 68.3308 242.667 68.9234C243.236 68.9234 243.995 68.9234 244.423 68.9234C245.799 67.9279 246.938 66.7428 248.599 64.9887ZM389.09 34.1275C388.454 33.9273 387.773 33.9101 387.127 34.0777C386.481 34.2454 385.895 34.5912 385.436 35.0757C385.198 35.3127 385.436 35.8816 385.436 36.3082C385.418 36.4173 385.43 36.5292 385.471 36.632C385.511 36.7349 385.579 36.825 385.666 36.8928C385.753 36.9607 385.857 37.0038 385.967 37.0177C386.077 37.0316 386.189 37.0158 386.29 36.9719C386.94 36.7946 387.536 36.4593 388.024 35.9961C388.513 35.5329 388.879 34.9561 389.09 34.3172V34.1275ZM398.963 36.4504C398.837 36.157 398.609 35.9187 398.321 35.7794C398.034 35.6401 397.705 35.609 397.396 35.6919C396.872 36.0421 396.407 36.4743 396.02 36.9719C395.593 37.4459 396.02 38.2518 396.685 38.4415C396.965 38.5082 397.256 38.5088 397.537 38.4432C397.817 38.3776 398.078 38.2476 398.299 38.0635C398.52 37.8794 398.696 37.6463 398.811 37.3827C398.926 37.1192 398.978 36.8324 398.963 36.5452V36.4504ZM129.657 136.856C128.185 136.524 127.189 137.567 126.002 137.852C124.816 138.136 124.531 138.278 124.768 138.989C125.005 139.7 125.765 138.989 126.287 138.989C126.991 138.981 127.68 138.777 128.275 138.4C128.87 138.024 129.349 137.489 129.657 136.856V136.856ZM431.048 156.198C430.309 156.41 429.594 156.696 428.912 157.051C428.836 157.231 428.797 157.424 428.797 157.62C428.797 157.815 428.836 158.009 428.912 158.189C428.912 158.189 429.434 158.52 429.719 158.52C430.763 158.473 430.716 157.525 431.048 156.198V156.198ZM543.63 204.315C544.2 204.836 544.485 205.263 544.912 205.405C545.103 205.424 545.297 205.4 545.477 205.334C545.658 205.269 545.822 205.163 545.956 205.026C546.099 204.66 546.099 204.254 545.956 203.888C545.956 203.888 545.387 203.461 545.197 203.556C544.647 203.747 544.121 204.001 543.63 204.315V204.315ZM106.115 145.579C105.023 145.579 103.979 145.579 103.362 146.906C105.071 146.669 105.071 146.669 106.115 145.579ZM123.439 142.165C122.253 141.36 121.635 141.644 121.161 142.165C121.061 142.283 121.002 142.43 120.993 142.585C120.984 142.739 121.025 142.892 121.111 143.02C121.197 143.149 121.322 143.246 121.468 143.297C121.614 143.348 121.773 143.35 121.92 143.303C122.46 142.971 122.969 142.59 123.439 142.165V142.165ZM176.36 105.71C176.36 105.473 176.361 105.189 176.076 105.189C175.996 105.143 175.906 105.119 175.815 105.119C175.723 105.119 175.633 105.143 175.554 105.189C175.554 105.189 175.554 105.473 175.554 105.663L176.36 105.71ZM251.4 446.558L250.83 447.175H251.115L251.827 446.796L251.4 446.558ZM429.149 11.5623C428.912 11.5623 428.675 11.5623 428.675 11.8942C428.633 11.9748 428.611 12.0642 428.611 12.1549C428.611 12.2456 428.633 12.335 428.675 12.4157C428.675 12.4157 429.007 12.4157 429.149 12.4157V11.5623ZM394.976 38.2044C394.828 38.2888 394.699 38.4016 394.596 38.5363C394.596 38.5363 394.596 38.8207 394.596 38.8207H395.071L394.976 38.2044ZM101.511 311.973C101.324 311.932 101.129 311.932 100.942 311.973H100.704C100.704 311.973 100.989 312.258 101.131 312.258C101.274 312.258 101.369 312.068 101.511 311.973Z" fill="#BFD9FF"/>
</svg>
