<svg width="643" height="401" viewBox="0 0 643 401" fill="none" xmlns="http://www.w3.org/2000/svg">
<path d="M542.552 82.4623C543.442 81.2943 544.947 80.4102 544.271 78.5104C544.209 78.0473 544.589 77.3674 544.835 76.8626L546.293 74.4655L544.868 73.61C545.739 71.6803 547.159 70.0494 548.95 68.9202C549.719 68.6208 550.548 68.5089 551.369 68.5938C551.883 68.5244 552.474 69.021 553.061 69.099C553.475 69.1823 553.904 69.1492 554.301 69.0032C554.697 68.8572 555.045 68.6041 555.307 68.272C555.754 67.8851 556.153 67.4443 556.492 66.9595C557.794 63.7975 560.78 62.2419 563.161 60.0869C564.15 59.0397 565.456 58.3478 566.878 58.1185C567.354 58.0519 567.8 57.8459 568.16 57.5264C569.342 56.5167 570.854 55.977 572.409 56.0101C573.354 55.876 574.243 55.484 574.98 54.8772C577.039 53.2886 579.29 51.9642 581.678 50.9348C584.27 49.7237 586.704 48.1988 588.924 46.3944C591.952 44.4505 594.848 42.3095 597.595 39.9853C598.124 39.5123 598.727 39.1299 599.381 38.8537C601.454 37.9146 603.354 36.6309 604.998 35.057C606.651 33.5295 608.531 32.2684 610.571 31.3187C611.319 31.0892 612.013 30.7112 612.611 30.2074C613.209 29.7036 613.699 29.0843 614.053 28.3866C616.975 26.1489 620.043 24.1073 623.235 22.2752C625.364 21.3592 627.459 20.1859 629.56 19.0641C630.075 18.9947 630.279 18.1812 630.694 17.7586C631.937 16.4906 632.933 14.9416 634.947 14.7223C635.204 14.6875 635.677 14.3094 635.642 14.0521C635.448 12.6114 637.252 12.0013 637.579 10.5425L636.194 9.21002C636.465 8.83056 636.768 8.47432 637.098 8.14499C637.66 7.65004 638.208 7.05218 638.984 7.36662C639.76 7.68107 639.185 8.85881 639.289 9.63063L641.92 11.2666C642.469 12.3264 642.636 13.5428 642.392 14.7111C642.149 15.8794 641.511 16.9283 640.585 17.6813C639.417 18.7296 638.359 19.8155 637.249 20.9083C636.872 21.2211 636.605 21.5715 636.938 22.1028L638.636 21.8737L638.333 23.1196C636.612 23.4866 634.929 24.0119 633.305 24.6886C631.906 25.6283 630.613 26.7162 629.447 27.9336L620.74 35.2382C619.637 36.1429 618.47 36.9658 617.248 37.7003C615.773 38.7232 614.366 39.8405 613.036 41.0453C610.627 42.9945 608.307 44.8269 605.737 46.7455C603.167 48.664 602.132 49.5371 600.446 51.022C599.241 52.1627 597.763 52.9753 596.154 53.3824C595.463 53.5695 594.796 53.8353 594.165 54.1747C590.306 56.2596 586.69 58.7682 583.386 61.6541C583.386 61.6541 583.435 62.0143 582.962 62.3925L585.69 62.8102C585.788 63.5306 585.579 63.9255 585.113 64.3551L582.112 66.9605C582.105 67.7931 582.042 68.6243 581.923 69.4483C581.655 70.9516 581.615 72.2142 583.26 73.1449C584.057 73.6137 583.901 74.7874 583.175 75.6188C582.493 76.4642 581.741 77.2494 580.925 77.9658C580.318 78.4413 579.832 79.054 579.507 79.7535C579.183 80.4529 579.029 81.2193 579.058 81.9899C579.069 83.293 578.834 84.5865 578.367 85.8029C578.409 86.1116 578.485 86.6776 578.52 86.9349C578.554 87.1922 579.446 86.8099 579.858 86.7544C580.449 86.2632 581.141 85.9093 581.886 85.7183C582.63 85.5273 583.407 85.5038 584.162 85.6497C585.803 85.8546 587.47 85.6297 588.998 84.9971C590.423 84.6999 591.868 84.505 593.321 84.4139L593.352 86.9769C594.999 86.7547 596.291 85.8468 598.047 85.6622C598.131 86.2797 598.214 86.8972 598.304 87.5661C598.372 88.4684 598.721 89.3267 599.304 90.0192C599.886 90.7118 600.672 91.2034 601.549 91.4244C601.858 91.3827 602.171 91.7596 602.449 91.8793C603.76 95.395 604.128 99.1927 603.516 102.895C604.938 104.496 605.831 106.499 606.071 108.627C605.297 109.884 604.418 111.522 603.319 113.085C602.035 114.944 601.039 116.986 600.364 119.142C599.862 120.467 599.469 121.83 598.95 123.42C599.419 124.561 601.786 124.242 601.429 126.648C600.955 127.314 600.307 127.837 599.556 128.16C598.806 128.483 597.98 128.593 597.171 128.48C595.88 128.21 594.536 128.392 593.363 128.994C592.069 129.597 590.741 130.126 589.386 130.578C589.149 130.866 588.963 131.193 588.835 131.543C588.573 132.969 587.865 134.276 586.814 135.274C585.762 136.273 584.421 136.912 582.983 137.1C582.033 137.237 581.133 137.612 580.368 138.192C579.603 138.772 578.998 139.537 578.61 140.415C577.937 141.673 577.087 142.828 576.087 143.846C574.96 145.203 573.957 146.701 572.889 148.102C571.318 150.364 569.509 152.453 567.495 154.331C565.306 156.356 563.298 158.565 561.233 160.73C561.233 160.73 561.289 161.141 561.323 161.399C561.358 161.656 562.539 161.863 563.201 161.722C564.395 161.566 565.513 161.049 566.406 160.241C568.937 157.705 571.72 155.433 574.713 153.462C574.497 154.143 574.363 154.847 574.314 155.559C574.466 156.148 574.737 156.7 575.11 157.181C575.481 157.78 575.891 158.355 576.337 158.901C575.936 160.625 575.945 162.418 576.362 164.137C575.807 164.79 575.388 165.548 575.129 166.366C574.871 167.183 574.778 168.044 574.857 168.898C574.808 169.848 574.635 170.787 574.343 171.692C573.576 174.939 574.694 176.622 578.126 177.207L580.363 177.481L578.893 180.561C578.218 180.6 577.547 180.69 576.886 180.832C576.332 181.006 575.818 181.289 575.374 181.664C575.166 181.783 574.984 181.944 574.839 182.135C574.695 182.327 574.591 182.546 574.534 182.78C574.478 183.013 574.469 183.255 574.509 183.492C574.549 183.729 574.637 183.955 574.768 184.156C574.883 184.403 575.058 184.618 575.277 184.781C575.495 184.945 575.751 185.052 576.02 185.093C576.29 185.134 576.566 185.109 576.823 185.018C577.08 184.928 577.311 184.775 577.496 184.574C578.663 183.79 579.908 183.131 581.212 182.606C581.824 182.201 582.539 181.977 583.273 181.961C583.869 181.936 584.448 181.751 584.948 181.425C585.448 181.1 585.851 180.646 586.114 180.11C587.152 178.661 588.437 177.406 589.91 176.402C591.218 175.206 592.409 173.888 593.466 172.465C593.8 171.994 594.18 171.557 594.599 171.159C594.98 170.768 595.481 170.516 596.022 170.443C596.563 170.37 597.113 170.48 597.584 170.757L599.441 171.711C600.584 173.967 599.19 175.674 598.308 177.679L600.533 178.636C601.645 179.115 602.797 178.331 603.982 178.957C605.166 179.583 606.298 179.43 607.441 179.748C608.584 180.065 609.683 180.441 610.826 180.758C611.155 180.737 611.481 180.693 611.804 180.626C613.19 178.867 613.19 178.867 614.837 178.645C615.596 179.224 615.018 179.983 615.101 180.6C615.184 181.218 614.847 182.992 614.846 184.145C614.768 184.739 614.849 185.343 615.082 185.894C615.835 187.207 616.788 188.441 617.644 189.74C619.684 188.941 619.943 185.815 622.672 186.232C622.887 186.443 623.026 186.719 623.066 187.018C623.106 187.316 623.046 187.619 622.894 187.879C622.145 189.709 621.96 191.83 619.917 192.996C619.425 193.348 619.068 193.859 618.907 194.442C618.403 196.92 616.285 198.306 615.022 200.205C614.413 200.944 613.655 201.547 612.798 201.973C611.866 202.515 611.052 203.238 610.404 204.099C609.755 204.96 609.285 205.943 609.021 206.988C608.807 207.655 608.485 208.283 608.067 208.845C607.385 209.66 606.82 210.565 606.386 211.535C606.109 212.201 605.174 212.641 604.42 213.267C604.459 215.951 603.457 218.546 601.624 220.507C599.576 222.408 599.524 222.415 597.232 222.515C597.068 222.119 596.859 221.742 596.61 221.394C596.304 221.068 595.888 220.705 595.521 220.702C595.09 220.832 594.705 221.084 594.414 221.428C594.241 221.607 594.142 221.845 594.137 222.094C593.885 223.333 593.685 224.565 593.423 226.12C595.99 225.46 598.446 224.422 600.709 223.041C602.495 221.606 604.728 220.841 607.019 220.88C608.254 220.713 609.441 220.972 609.855 222.488C609.925 223.002 610.649 223.324 611.116 223.68C611.584 224.036 612.174 224.533 612.824 225.074C612.351 225.452 612.135 225.795 611.871 225.779C610.539 225.777 609.257 226.288 608.291 227.205C605.878 228.728 603.659 230.541 601.684 232.602C601.041 232.738 600.451 233.056 599.984 233.519C599.517 233.981 599.193 234.568 599.05 235.21C599.05 235.21 598.732 235.567 598.533 235.647C595.946 237.366 593.489 239.274 591.182 241.354C590.688 241.445 590.18 241.428 589.693 241.303C589.205 241.179 588.751 240.951 588.361 240.634C587.948 240.276 587.444 240.041 586.904 239.956C586.364 239.871 585.812 239.94 585.31 240.155C583.194 240.593 581.224 241.559 579.582 242.962C577.939 244.365 576.678 246.161 575.914 248.181C575.248 249.843 575.523 250.33 577.562 250.683L578.231 250.593C578.641 251.691 579.745 251.332 580.535 251.749C580.424 252.084 580.215 252.377 579.936 252.592C579.657 252.808 579.32 252.934 578.969 252.956C576.345 253.094 573.863 254.194 571.998 256.045C568.613 258.911 565.849 262.114 562.776 265.357C560.607 267.729 558.674 270.306 557.004 273.052C556.859 273.248 556.764 273.477 556.727 273.718C556.806 274.847 556.565 275.975 556.033 276.973C555.501 277.972 554.698 278.8 553.716 279.363C553.198 279.681 552.817 280.181 552.648 280.765C551.993 282.668 550.799 284.34 549.211 285.577C547.678 286.924 546.665 288.767 546.351 290.783C546.032 293.079 544.205 294.688 542.877 296.491C542.298 297.25 541.596 297.869 540.966 298.635C540.436 299.29 539.709 299.756 538.892 299.963C537.688 300.409 536.536 300.987 535.457 301.683C534.231 302.386 533.079 303.208 532.016 304.139C531.309 304.779 530.488 305.28 529.596 305.618C527.824 306.185 526.169 307.065 524.707 308.216C523.536 309.024 522.3 309.734 521.012 310.339C520.239 310.671 519.504 311.086 518.821 311.577C517.994 312.379 517.006 312.994 515.922 313.383C514.84 313.876 513.866 314.577 513.056 315.446C512.66 315.895 512.175 316.258 511.633 316.511C511.09 316.765 510.501 316.904 509.902 316.92C508.41 317.121 506.866 317.329 505.26 317.074C503.838 317.007 502.428 317.361 501.206 318.093C499.554 319.043 497.786 319.774 495.946 320.27C495.299 320.334 494.673 320.538 494.112 320.867C493.55 321.196 493.066 321.642 492.693 322.176C492.47 322.461 492.203 322.709 491.902 322.911L483.603 327.803C483.064 328.019 482.538 328.265 482.026 328.54C479.565 330.496 476.744 331.715 474.146 333.428C472.005 335.153 469.579 336.491 466.977 337.381C466.624 337.469 466.303 337.657 466.055 337.925C463.437 340.341 460.388 342.245 457.068 343.538C453.092 345.908 448.716 347.651 444.675 349.926C440.633 352.2 435.704 355.275 431.189 357.927C429.781 358.746 428.299 359.418 426.832 360.192C425.365 360.966 422.941 362.027 421.155 363.158C419.215 364.047 417.34 365.07 415.543 366.221C415.379 366.388 415.183 366.522 414.967 366.613C410.677 367.82 407.175 370.598 403.043 372.204C401.022 373.169 399.07 374.273 397.201 375.507C396.279 376.05 395.292 376.498 394.363 376.99C391.531 378.524 388.751 380.052 385.906 381.484C384.188 382.344 382.391 383.006 380.667 383.815C379.709 384.296 378.785 384.841 377.9 385.446C376.882 386.055 375.995 386.855 374.911 387.368L363.347 392.91C362.825 393.2 362.327 393.53 361.856 393.898C359.449 395.867 356.581 397.191 353.521 397.746C351.77 398.14 350.092 398.809 348.549 399.727C346.377 400.97 344.065 401.95 341.661 402.647C341.661 402.647 341.352 402.689 341.301 402.696C339.986 404.602 337.526 404.62 335.988 406.032C334.067 407.638 331.91 408.937 329.592 409.882C327.406 411.107 325.061 412.023 322.624 412.603C322.275 412.542 321.915 412.591 321.595 412.742C318.622 414.477 315.478 415.902 312.214 416.994C311.885 417.115 311.534 417.163 311.185 417.133C310.487 417.011 309.77 417.033 309.081 417.198C308.391 417.363 307.743 417.668 307.176 418.093C306.347 418.939 304.892 419.03 303.785 419.756C302.193 420.596 300.538 421.31 298.834 421.891C297.068 422.376 295.401 423.168 293.91 424.232C293.286 425.003 292.453 425.579 291.511 425.892C290.569 426.205 289.557 426.241 288.595 425.997C286.727 427.977 284.237 429.256 281.54 429.621C281.117 429.764 280.721 429.977 280.367 430.25C277.62 431.874 274.74 433.262 271.758 434.398C267.517 435.966 263.361 437.784 259.185 439.448C258.643 439.703 258.122 440.001 257.628 440.339C255.531 441.876 253.105 442.903 250.541 443.338C249.769 443.443 248.992 444.281 248.166 444.759C244.485 446.639 240.707 448.321 236.848 449.797C236.519 449.817 236.192 449.861 235.87 449.928C233.461 451.439 230.802 452.508 228.018 453.084C226.55 453.56 225.123 454.156 223.752 454.864C219.524 456.535 215.283 458.103 211.12 459.869C209.927 460.345 208.65 460.203 207.426 460.839C204.869 462.075 202.101 462.92 199.457 463.905C198.691 464.259 197.874 464.493 197.036 464.599C194.721 464.911 192.918 466.307 190.682 466.818C190.037 466.979 189.464 467.348 189.051 467.868C188.638 468.388 188.408 469.03 188.398 469.694C188.544 470.774 189.358 471.765 191.037 472.167C191.745 472.324 192.477 472.35 193.195 472.242C194.842 472.02 196.488 471.798 198.341 471.548C200.193 471.298 202.411 470.265 204.486 469.723C205.181 469.604 205.895 469.67 206.555 469.916C207.459 470.3 208.327 470.761 209.151 471.294C208.833 471.652 208.638 472.15 208.292 472.301C206.369 473.502 204.249 474.356 202.031 474.822C201.223 475.013 200.434 475.277 199.675 475.612C196.87 476.567 194.078 477.624 191.201 478.432C189.867 478.745 188.506 478.929 187.136 478.98C186.063 478.344 185.206 477.402 184.675 476.273C183.491 474.357 182.434 472.364 181.513 470.308C181.39 470.044 181.216 469.807 181.001 469.611C180.786 469.415 180.533 469.265 180.259 469.168C178.583 468.476 176.714 468.412 174.995 468.987C173.551 469.549 172.094 470.007 170.585 470.473C169.653 470.715 168.671 470.675 167.761 470.36C166.852 470.044 166.056 469.467 165.473 468.7C162.772 465.764 162.398 465.71 158.801 467.4C157.962 467.825 157.071 468.139 156.151 468.334C154.243 468.623 152.41 469.28 150.753 470.267C147.789 471.961 144.62 473.269 141.324 474.159C139.52 474.798 137.768 475.578 136.085 476.49C134.699 477.042 133.17 477.123 131.733 476.72C130.297 476.318 129.032 475.454 128.135 474.262C127.911 473.839 127.76 473.381 127.69 472.908C127.6 472.239 127.503 471.518 127.406 470.798C127.107 468.585 125.72 467.62 123.563 468.33C120.552 469.313 117.445 468.422 114.506 469.552C113.958 469.661 113.389 469.565 112.907 469.283C112.425 469 112.063 468.551 111.89 468.019C111.673 467.529 111.31 467.118 110.851 466.842C110.392 466.567 109.858 466.44 109.324 466.479L108.597 464.586C108.626 464.338 108.7 464.097 108.816 463.876C109.874 462.79 111.043 461.742 112.036 460.56C112.397 460.019 112.653 459.416 112.791 458.781C111.202 458.262 109.704 459.198 108.309 458.181L108.856 456.797C105.476 456.206 105.476 456.206 103.042 457.582L103.444 460.566C101.926 461.348 100.667 461.727 99.4366 460.374C99.4366 460.374 98.7775 460.148 98.4549 460.087C98.2835 459.644 98.0043 459.251 97.6426 458.943C97.2808 458.635 96.848 458.422 96.3832 458.323C95.8613 458.59 95.3069 458.789 94.7338 458.913C93.8185 458.868 92.9038 459.011 92.0462 459.334C91.1886 459.657 90.4064 460.153 89.748 460.79C89.2342 461.029 88.6601 461.106 88.1014 461.012C86.7121 461.2 85.3228 461.387 83.9336 461.575C82.5443 461.762 82.4593 462.298 82.6259 463.533C83.7602 463.677 84.9055 463.716 86.0469 463.647C88.7457 463.239 91.4142 462.651 94.0351 461.888C95.5787 461.68 97.4311 461.43 98.4994 460.029L98.7771 462.087C98.3723 462.662 97.8548 463.149 97.2561 463.517C96.6575 463.886 95.9901 464.13 95.2945 464.233C93.5451 464.469 91.7858 465.021 90.1976 465.288C89.6253 465.323 89.0688 465.49 88.5713 465.775C88.0738 466.061 87.6485 466.456 87.3284 466.932C87.6926 467.302 88.1056 468.032 88.4143 467.991C89.7007 467.817 90.9813 468.378 92.2734 467.47C93.7974 466.821 95.4686 466.595 97.1102 466.817C97.1102 466.817 97.4605 467.085 97.8109 467.352C98.1613 467.619 97.1641 468.382 96.6704 468.606C94.0343 469.881 91.2159 470.738 88.3163 471.147C86.8755 471.342 85.2776 471.924 83.8691 470.804C84.616 470.127 84.5968 468.82 85.8832 468.647C85.8832 468.647 86.1601 467.981 86.0739 467.73C86.0193 467.565 85.9308 467.414 85.8142 467.285C85.6976 467.157 85.5555 467.054 85.3968 466.983C84.4176 466.688 83.3763 466.666 82.3855 466.919C81.3947 467.173 80.4921 467.693 79.7756 468.423C79.04 469.153 78.1463 469.704 77.1636 470.033C75.0825 470.845 73.2124 472.119 71.6935 473.757C71.13 474.518 70.3394 475.08 69.4357 475.362C68.532 475.644 67.5622 475.631 66.6661 475.326L65.9162 469.769C70.8604 467.583 70.0608 467.481 69.9558 463.985C70.4871 463.651 70.4009 463.401 69.8447 463.161C69.8762 462.812 69.8288 462.461 69.7059 462.132C69.6503 461.721 69.3097 461.138 68.9871 461.077C68.6645 461.015 68.1638 461.188 67.7008 461.25C67.2377 461.313 67.4435 461.285 67.4435 461.285C66.902 463.873 64.6212 464.443 62.7076 465.015C59.0454 465.967 55.4842 467.273 52.074 468.912C50.6748 469.49 49.2293 469.948 47.753 470.281C47.989 472.031 49.2811 471.123 49.9749 471.606C50.9001 472.794 51.3281 474.295 51.1687 475.793L47.4966 479.642L44.9479 477.837C44.4334 477.907 43.6073 478.385 43.4125 478.883C42.3912 481.797 39.7155 482.158 37.4389 483.147C35.1875 482.769 33.3196 484.069 31.203 484.302L30.2768 484.427C29.3632 483.87 28.9643 483.242 29.3608 482.298L30.9163 478.683C31.3268 478.344 31.8237 478.127 32.351 478.056C32.8784 477.985 33.4151 478.063 33.9007 478.28C34.719 478.482 35.5835 478.365 36.3191 477.954C36.3538 478.211 36.4163 478.674 36.7793 478.258L36.2231 478.019C36.678 477.12 37.1398 476.271 37.5433 475.379C37.6792 474.961 37.7616 474.527 37.7883 474.088L43.0518 474.269L44.7474 472.468L45.2734 470.93C44.819 471.046 44.3528 471.108 43.8841 471.118C43.2172 470.874 42.4857 470.874 41.8187 471.117C41.1518 471.361 40.5923 471.832 40.239 472.448C40.239 472.448 39.2613 472.58 38.5924 472.67L37.7271 474.411C37.1716 473.958 36.5569 473.582 35.9 473.295C34.7883 472.969 33.6069 472.965 32.493 473.283C30.8346 473.816 29.1375 474.221 27.4169 474.492C26.5811 474.557 25.7804 474.856 25.1064 475.354C24.4325 475.853 23.9125 476.531 23.606 477.312C23.0812 479.635 21.0647 480.222 19.6807 481.613L17.4171 479.98C17.4077 479.529 17.3471 479.08 17.2366 478.642C17.1718 478.507 17.0796 478.385 16.9657 478.287C16.8519 478.188 16.7189 478.114 16.575 478.07C16.4312 478.025 16.2797 478.011 16.1301 478.028C15.9804 478.045 15.8359 478.092 15.7056 478.168C15.1396 478.244 14.7668 478.976 14.2077 479.104C13.6487 479.231 13.9042 480.35 13.4216 481.043C11.8965 481.392 10.4004 481.856 8.9462 482.433C7.50955 483.046 6.05901 483.556 4.65993 484.059C4.2102 484.294 3.71837 484.438 3.21282 484.482C2.70727 484.526 2.19803 484.469 1.71449 484.315C1.23096 484.161 0.782769 483.913 0.395694 483.585C0.00861771 483.257 -0.309673 482.855 -0.540701 482.403C-0.965443 481.819 -1.53333 481.355 -2.18971 481.054C-3.48457 480.435 -4.83226 479.933 -6.21666 479.554C-8.01882 479.011 -9.8516 478.63 -11.6329 478.242C-12.1042 478.201 -12.5785 478.265 -13.0222 478.429L-13.1819 477.246L-13.5936 477.301L-13.4339 478.485C-14.2572 478.596 -15.1833 478.721 -15.9604 477.621C-16.7883 476.916 -17.7138 476.335 -18.7081 475.896C-18.8539 474.815 -18.4544 473.504 -19.7629 472.737C-21.0713 471.971 -19.9642 471.245 -20.0892 470.319C-18.6112 469.587 -17.4262 468.374 -16.7287 466.879C-16.091 465.886 -15.3342 464.975 -14.4754 464.165C-13.7562 463.282 -12.4184 463.102 -11.9091 461.828C-11.4593 460.967 -10.9187 460.156 -10.2969 459.41C-7.05234 458.605 -6.56025 459.534 -2.96451 461.721L-1.16485 460.693C-0.547243 460.373 0.161775 460.278 0.841891 460.422C2.94795 460.69 5.06724 460.841 7.19004 460.875L7.32195 461.853L6.80745 461.922L7.2191 461.867C7.86503 461.792 8.47919 461.546 8.99756 461.154C9.51594 460.761 9.91953 460.237 10.1663 459.635C10.8594 458.394 11.8811 457.368 13.1192 456.67C15.0919 455.568 17.4085 455.256 19.6025 455.795C20.8714 455.925 22.1522 455.875 23.4074 455.648C26.7005 455.204 29.8241 453.892 33.1935 454.013C33.5023 453.972 33.8625 453.923 34.1712 453.881C34.4799 453.84 35.0753 452.816 35.9194 452.86C36.7635 452.903 38.2349 452.547 39.3918 452.967C39.8774 453.185 40.4141 453.263 40.9414 453.191C41.4687 453.12 41.9657 452.903 42.3762 452.565C43.1023 451.733 44.0117 451.873 45.0004 452.211C45.7603 452.341 46.5397 452.3 47.2818 452.091C48.0239 451.882 48.7102 451.51 49.2908 451.003C50.9561 450.49 52.6946 450.256 54.4363 450.309C55.0023 450.232 55.6197 450.149 56.1857 450.073C60.3021 449.517 64.5729 448.941 66.2455 443.476L65.4851 442.112C65.242 442.116 65.0003 442.149 64.7648 442.209C63.0153 442.445 61.3283 443.144 59.6956 443.469C59.4819 443.467 59.272 443.413 59.0845 443.31C58.897 443.207 58.7376 443.06 58.6208 442.881C58.5588 442.657 58.5535 442.421 58.6053 442.195C58.657 441.968 58.7643 441.758 58.9173 441.584C59.7758 440.957 60.681 440.397 61.6252 439.908C62.4326 439.375 62.9982 438.546 63.1999 437.6C63.3508 437.216 63.3777 436.795 63.2768 436.395C63.1759 435.995 62.9521 435.637 62.6371 435.371C62.5522 435.234 62.4971 435.081 62.4755 434.921C62.454 434.762 62.4665 434.599 62.5121 434.445C62.4219 433.776 62.9491 433.024 63.2803 431.983C63.9054 432.624 64.4725 433.319 64.975 434.06C65.4994 435.139 66.3815 436.004 67.4713 436.506C68.5612 437.009 69.7914 437.118 70.9528 436.816C72.6729 436.587 74.4049 436.458 76.14 436.431L78.1095 434.331C78.591 432.852 77.6999 431.295 79.3759 430.126C81.5904 431.394 83.58 433.02 85.2642 434.937C86.4112 435.307 87.6374 435.355 88.8099 435.077C89.9823 434.799 91.0561 434.205 91.9146 433.359C91.8134 432.849 91.7439 432.334 91.7063 431.815C91.5073 430.591 91.666 429.336 92.1634 428.2C92.6607 427.064 93.4754 426.096 94.5097 425.412C95.4526 424.917 96.2714 424.216 96.9049 423.36C96.9049 423.36 96.8632 423.051 96.8493 422.948L95.3117 420.484C90.609 421.086 85.9995 422.271 81.5896 424.012C81.7771 425.401 82.5044 425.355 83.2623 425.148C83.4222 425.122 83.5861 425.136 83.7393 425.189C83.8926 425.241 84.0306 425.331 84.1411 425.449C84.2329 425.583 84.292 425.736 84.3137 425.897C84.3354 426.058 84.3191 426.222 84.2661 426.375C84.0058 426.786 83.6644 427.14 83.2627 427.415C82.861 427.69 82.4075 427.88 81.9299 427.974C81.4523 428.068 80.9605 428.064 80.4847 427.961C80.0089 427.859 79.5589 427.66 79.1623 427.378C78.6501 427.087 78.1661 426.749 77.7162 426.368C77.3825 425.948 76.922 425.646 76.4031 425.508C75.8842 425.371 75.3347 425.404 74.8364 425.604C74.0427 425.856 73.1861 425.823 72.4139 425.512C72.0814 425.36 71.7162 425.295 71.3518 425.321C70.9875 425.348 70.6356 425.465 70.3285 425.663C70.0214 425.861 69.7689 426.133 69.5943 426.454C69.4196 426.775 69.3284 427.135 69.329 427.5C69.1396 429.202 68.358 429.622 66.8935 430.029C64.5512 430.517 62.12 430.356 59.8626 429.563C58.0637 428.944 56.1178 428.896 54.2903 429.424L56.1819 427.912C56.2084 426.816 56.1481 425.721 56.0018 424.635C55.6462 423.136 55.6508 421.573 56.0153 420.075C56.3395 418.984 55.682 417.606 55.5015 416.268C52.5162 415.753 49.4449 416.168 46.7027 417.455C46.2825 417.641 45.9382 417.965 45.7263 418.372C45.1494 419.354 44.367 420.199 43.4329 420.849C42.4988 421.5 41.435 421.941 40.3145 422.141C38.3188 422.882 36.1467 422.704 34.1995 423.805C33.3182 424.114 32.3766 424.212 31.4504 424.092C30.5242 423.971 29.6392 423.635 28.8666 423.11L23.5329 426.292C22.7621 426.843 22.1569 427.595 21.7831 428.466C21.5601 429.033 21.1414 429.501 20.6029 429.785C20.0645 430.069 19.442 430.151 18.8485 430.015C18.5042 429.927 18.142 429.939 17.8043 430.05C17.4666 430.16 17.1674 430.365 16.9417 430.639C16.5672 431.022 16.0928 431.291 15.5724 431.417C15.0521 431.543 14.507 431.52 13.9991 431.35L11.5516 430.685C10.6798 430.436 9.81076 429.82 8.82332 430.267C8.19712 430.427 7.61184 430.718 7.1062 431.12C6.60056 431.522 6.18609 432.027 5.89002 432.602C5.82399 432.751 5.71251 432.876 5.57145 432.959C4.23362 433.14 3.14329 433.601 2.04599 434.011C0.948701 434.421 -0.00402491 435.126 -1.09438 435.587C-1.54066 435.821 -2.0291 435.964 -2.53109 436.007C-3.03308 436.049 -3.53856 435.992 -4.01799 435.837C-4.49743 435.682 -4.94122 435.433 -5.32335 435.105C-5.70548 434.776 -6.01832 434.375 -6.24358 433.925C-6.71485 433.15 -7.73126 432.606 -7.36945 431.405C-7.36945 431.405 -8.05638 430.973 -8.39982 430.758C-7.01439 429.699 -5.41888 428.947 -3.7199 428.554C-2.00015 428.048 -0.336541 427.367 1.24509 426.522C1.4132 426.454 1.56448 426.351 1.68835 426.218C1.81222 426.086 1.90569 425.928 1.96227 425.756C2.01884 425.584 2.03718 425.401 2.01593 425.221C1.99469 425.041 1.93438 424.868 1.83927 424.713C1.56069 424.353 1.38196 423.925 1.32103 423.473C1.26009 423.022 1.3191 422.562 1.49213 422.141C2.30654 421.845 3.09932 421.493 3.86475 421.087C4.82049 420.452 5.93082 420.088 7.0771 420.035C8.22338 419.982 9.36257 420.241 10.373 420.785C11.1808 421.218 12.0887 421.429 13.0047 421.398C13.9206 421.366 14.8119 421.093 15.5879 420.605C17.2912 419.753 19.1425 419.237 21.0409 419.084C22.3274 418.866 23.5998 418.572 24.8514 418.203L27.2797 417.561C30.4699 417.13 33.6601 416.7 36.767 415.652C39.2026 415.077 41.4853 413.982 43.4593 412.444C43.7584 412.164 44.1369 411.985 44.5426 411.93C44.9482 411.875 45.3609 411.948 45.7233 412.138C46.142 412.325 46.6046 412.389 47.0583 412.325C49.8111 411.981 52.4057 410.849 54.5295 409.064C54.4724 408.252 54.3634 407.444 54.2032 406.646C53.9949 405.102 53.0508 404.705 51.3041 404.574L50.9954 404.616C46.9807 404.372 46.1104 402.97 47.3976 398.919C48.2209 398.808 48.3042 399.426 48.4835 399.978C48.6628 400.53 48.5599 400.544 48.5737 400.647C49.0577 400.924 49.5995 401.084 50.1561 401.114C50.4134 401.08 50.8446 400.393 50.796 400.032C50.6044 397.947 51.2023 395.866 52.4715 394.2L57.4431 394.158C58.2958 393.1 58.6408 392.163 60.1261 391.91C63.059 391.514 63.1619 391.501 62.473 394.161C62.1529 395.671 62.7924 396.528 64.4182 396.151C65.5742 395.828 66.7915 395.789 67.9657 396.039C68.6631 396.077 69.3613 395.983 70.0238 395.762C72.4705 395.224 75.0229 395.447 77.3399 396.399C78.1678 396.655 79.0165 396.838 79.8763 396.947L81.9978 399.857C86.7712 399.962 91.5185 399.125 95.9686 397.395C97.076 396.971 98.0047 396.18 98.6001 395.154C99.6047 392.504 102.125 391.378 103.865 389.519C104.464 388.914 105.188 388.45 105.729 387.8C105.791 387.613 105.81 387.413 105.783 387.217C105.757 387.021 105.686 386.833 105.576 386.668C105.361 386.61 105.136 386.595 104.915 386.624C104.694 386.654 104.481 386.728 104.29 386.842C103.878 386.898 103.704 387.55 103.385 387.907C102.995 388.237 102.58 388.539 102.145 388.808C100.595 387.507 98.8072 386.52 96.8804 385.903C95.679 385.541 95.2134 384.032 94.7381 382.839C93.748 380.923 93.4512 378.723 93.898 376.613C93.8563 376.304 93.8008 375.893 93.7591 375.584C94.4354 373.607 92.6876 372.69 91.9786 371.319C91.937 371.01 91.0859 370.915 90.6673 370.919C90.2487 370.923 89.4839 371.079 88.9178 371.155C88.3468 371.185 87.78 371.042 87.2909 370.746C86.7135 370.145 86.0061 369.684 85.2229 369.4C84.4397 369.115 83.6016 369.013 82.7731 369.103C81.8758 369.132 80.9825 368.972 80.1513 368.633C79.3201 368.294 78.5698 367.783 77.9493 367.134C77.4596 366.109 77.2866 364.962 77.4523 363.838C77.618 362.715 78.1149 361.666 78.8796 360.826C79.8947 359.234 81.1519 357.809 82.6059 356.604C83.7703 355.756 84.7817 354.716 85.5965 353.528C86.1401 352.963 86.4769 352.231 86.5523 351.451C86.6277 350.67 86.4372 349.887 86.0117 349.229C85.6613 348.55 85.4051 347.826 85.2501 347.078C84.4301 347.02 83.6067 347.131 82.8317 347.405C81.783 348.175 80.0016 347.787 79.4826 349.376C79.2253 349.411 78.7206 349.164 78.6344 348.914C77.9187 347.312 77.5421 345.579 77.5285 343.824C77.6594 342.702 77.3748 341.571 76.7285 340.645C76.0823 339.719 75.1191 339.061 74.021 338.796C72.2564 338.144 70.3207 337.776 69.2406 335.984C69.5012 334.481 69.861 332.997 70.3178 331.542C70.8952 329.997 72.8963 330.461 73.9686 329.478C74.4909 328.988 75.0413 328.529 75.6168 328.103C74.4957 327.523 73.2207 327.31 71.9721 327.494C70.4284 327.703 68.7304 327.932 67.226 326.877C66.6934 326.425 65.6268 326.674 64.7827 326.631L64.4564 324.212L61.6863 323.486C61.5892 322.765 61.4989 322.096 61.4017 321.376C61.3045 320.656 61.1726 319.678 59.8584 319.646C59.3727 319.659 58.8897 319.725 58.4177 319.84L57.1313 320.014C57.5765 319.43 57.7268 318.99 58.0661 318.787C59.3384 317.683 60.3519 316.312 61.0345 314.772C61.2988 314.386 61.4382 313.928 61.4339 313.461C61.3122 312.15 61.551 310.832 62.1244 309.648C62.3903 309.241 62.5008 308.751 62.4358 308.27C62.3707 307.788 62.1346 307.345 61.7704 307.023C60.962 306.318 60.4243 305.353 60.2495 304.295C59.6325 302.439 58.6744 301.94 56.6232 302.269C54.5719 302.598 53.6359 303.039 52.1131 303.402C51.671 303.487 51.2244 303.548 50.7753 303.582C50.2306 302.99 49.9275 302.215 49.9256 301.411C49.9237 300.606 50.2232 299.83 50.7651 299.235C52.3412 296.991 53.1876 294.315 53.1891 291.573C53.3633 290.218 53.6563 288.881 54.0646 287.578C55.3469 286.986 56.7252 286.328 58.0896 285.568C58.6983 285.238 59.2597 284.827 59.7585 284.347C61.0707 282.769 62.946 281.765 64.9865 281.546C66.5487 281.468 68.0525 280.928 69.3071 279.994C70.5616 279.06 71.5102 277.774 72.0325 276.299C76.8448 276.086 81.3797 273.988 84.6565 270.457C85.531 269.644 86.3406 268.764 87.0781 267.825C87.1796 267.407 87.1201 266.966 86.9115 266.59C86.8056 266.461 86.6689 266.362 86.514 266.3C86.3591 266.239 86.1912 266.217 86.0258 266.238C84.142 266.581 82.278 267.024 80.4421 267.568C79.3671 267.988 78.2159 268.179 77.0628 268.127C75.9097 268.075 74.7804 267.782 73.7476 267.266C73.7614 266.14 74.0528 265.034 74.5958 264.047C75.1389 263.06 75.9169 262.222 76.861 261.607C77.2117 261.392 77.6033 261.253 78.0108 261.198C78.4184 261.143 78.8328 261.173 79.2279 261.288C80.5031 261.584 81.8311 261.566 83.0981 261.237C86.3645 260.579 89.5922 259.741 92.7663 258.727C95.7258 257.752 98.713 256.982 101.759 256.257C102.657 256.029 103.6 256.047 104.49 256.307C105.2 256.526 105.723 257.293 106.372 257.834C107.916 257.626 109.5 256.941 111.047 256.366C113.992 255.287 114.447 254.387 114.305 251.001C114.302 250.543 114.383 250.088 114.543 249.659L115.638 245.739C114.93 245.154 114.127 244.633 113.463 243.989C112.8 243.259 111.884 242.807 110.901 242.726C109.917 242.644 108.939 242.94 108.165 243.552C105.991 244.8 103.642 245.717 101.197 246.273C100.252 246.582 99.2374 246.613 98.2748 246.362C97.3121 246.111 96.4417 245.589 95.7673 244.858C97.4367 242.493 99.6602 240.574 102.243 239.269C102.871 238.87 103.577 238.67 104.211 238.322C104.651 238.135 105.043 237.851 105.357 237.491C105.671 237.131 105.9 236.704 106.026 236.243L107.753 230.404C107.867 228.66 107.631 226.911 107.059 225.259C106.954 224.849 106.72 224.483 106.392 224.216C106.063 223.949 105.658 223.795 105.235 223.776C103.105 223.398 100.911 223.694 98.9574 224.623C95.2401 226.499 91.3625 228.039 87.3711 229.225C85.9841 229.908 84.4127 230.12 82.8945 229.829C82.4886 229.151 83.1158 228.752 83.4788 228.336C84.6807 226.759 85.9854 225.168 87.1803 223.54C87.4849 223.08 87.8647 222.4 87.6993 221.951C87.206 220.236 88.0795 219.332 89.1964 218.291C90.036 217.463 90.8089 216.571 91.5082 215.622C91.3277 214.284 91.1749 213.152 90.6718 211.753C91.3782 211.222 92.1179 210.737 92.886 210.301C94.2145 209.512 95.5881 208.802 96.9999 208.174C99.0847 207.317 101.314 206.754 103.333 205.8C106.635 204.255 110.174 203.306 113.222 201.428C115.403 200.674 117.63 200.058 119.889 199.585C123.698 197.918 127.493 196.149 131.31 194.534C135.126 192.918 137.937 191.229 141.17 189.955C146.149 188.026 150.705 185.682 155.581 183.767C159.456 182.196 163.121 180.235 166.93 178.568C172.56 176.027 178.262 173.634 183.936 171.034L186.428 169.702C188.577 168.414 190.828 167.304 193.158 166.384C196.375 165.374 199.093 163.383 202.237 162.225C205.382 161.068 207.133 159.679 210.055 158.813C212.247 157.976 214.371 156.972 216.408 155.808L223.138 152.49L242.824 143.075C245.131 141.925 247.28 140.378 249.653 139.324C253.846 137.396 257.829 135.078 262.109 133.4C265.195 132.198 267.868 130.265 270.837 128.974C272.807 127.666 274.974 126.684 277.255 126.065L276.998 126.099C277.199 124.867 278.696 125.87 279.226 124.751C279.756 123.632 280.731 123.867 281.702 123.683C282.475 123.425 283.186 123.008 283.789 122.459C286.242 120.696 288.923 119.277 291.76 118.24C293.246 117.529 294.657 116.671 295.973 115.68C296.321 115.376 296.73 115.15 297.174 115.018C297.617 114.885 298.083 114.85 298.541 114.915C299.21 114.824 298.817 113.463 299.85 113.743C301.296 112.33 303.156 111.418 305.157 111.14C305.444 111.09 305.712 110.966 305.935 110.779C306.158 110.593 306.328 110.351 306.429 110.078C306.963 109.378 308.516 110.792 308.544 109.059C309.402 108.673 310.216 108.194 310.971 107.632C313.211 105.872 315.619 104.336 318.159 103.047L319.605 102.118L319.348 102.153C320.195 101.537 321.082 100.98 322.004 100.485C323.729 99.7781 325.365 98.8715 326.879 97.7837C327.986 96.8895 329.341 96.359 330.761 96.2645L332.495 95.1398C333.846 94.2765 335.733 94.2838 336.605 92.5944C336.605 92.5944 337.017 92.5388 337.222 92.5111C340.46 91.6551 342.823 88.9786 346.119 88.1671C346.84 88.0699 347.404 87.2079 348.069 86.699C349.832 85.3136 351.72 84.0943 353.708 83.0567C357.519 81.3954 361.121 79.2915 364.44 76.7885C365.909 75.5729 367.535 74.5605 369.273 73.7788C371.324 72.8043 373.236 71.5597 374.956 70.078C377.604 68.1015 380.446 66.4012 383.44 65.0039C386.262 63.7064 388.874 61.9943 391.19 59.9241C391.736 59.4563 392.36 59.0883 393.034 58.837C396.318 57.4058 399.379 55.5106 402.124 53.2096C402.488 53.0856 402.873 53.0337 403.256 53.0568C404.039 53.4227 403.8 53.9789 403.907 54.3836C404.403 55.7312 405.045 56.2209 406.243 56.1641C407.44 56.1073 409.571 55.977 411.43 55.7786C411.779 55.8119 412.131 55.7644 412.459 55.6397C413.638 55.0614 414.759 54.4387 415.946 53.9119C417.132 53.385 418.213 53.2392 419.238 52.6818C422.238 50.931 425.456 49.581 428.807 48.6662C430.445 48.2757 432.003 47.6046 433.412 46.6827C437.113 44.7629 440.457 42.2205 443.296 39.1669C444.116 38.3159 444.988 37.5159 445.906 36.7714C449.202 37.8985 449.202 37.8985 451.679 35.6781L454.802 36.3045C456.661 33.9839 458.72 31.8304 460.954 29.8685C462.087 28.7433 463.096 27.5007 463.964 26.1617C466.12 26.6044 468.352 27.613 470.499 25.28L472.18 27.2536L474.145 26.6741C474.929 26.4264 475.761 26.3683 476.572 26.5049C477.383 26.6414 478.15 26.9685 478.809 27.4594C480.204 28.4762 481.722 29.6336 483.564 28.9136C483.682 29.7883 483.744 30.2514 483.82 30.8174L487.816 31.6929C489.464 31.1819 490.919 30.1817 491.987 28.8249C493.754 27.0506 495.652 25.411 497.664 23.9199C499.961 22.3508 501.616 20.0074 502.327 17.3181L501.508 15.9092C503.552 13.7737 506.052 12.1287 508.822 11.0977C509.491 11.0075 509.909 10.2177 510.478 9.77416L514.134 6.97555C515.567 5.94398 517.384 5.43679 517.834 3.33284C517.772 2.86975 518.934 2.5557 519.51 2.16366C520.086 1.77161 519.934 1.42532 519.576 0.321075C520.16 0.178887 520.776 0.244034 521.317 0.505394C521.859 0.766746 522.293 1.2081 522.546 1.75404C523.091 2.67282 523.586 3.62039 524.029 4.59262C524.222 4.90518 524.348 5.25451 524.399 5.61841C524.45 5.98232 524.424 6.35282 524.324 6.70635C524.224 7.05988 524.051 7.3887 523.817 7.6719C523.583 7.95509 523.293 8.18645 522.964 8.35129L519.472 10.8134C519.136 10.96 518.841 11.1872 518.613 11.4749C518.386 11.7626 518.232 12.102 518.167 12.463C518.102 12.8241 518.126 13.1956 518.239 13.5448C518.352 13.894 518.548 14.2101 518.812 14.4651L519.204 15.0409C519.204 15.0409 519.204 15.0409 519.496 15.2634C520.265 15.4004 521.054 15.3623 521.806 15.152C522.557 14.9418 523.252 14.5647 523.838 14.0489C524.518 13.3834 525.404 12.9684 526.351 12.8716C528.022 12.7597 529.62 12.1422 530.932 11.1008C533.076 9.73376 535.509 8.88527 538.038 8.62274L541.355 10.6899C541.375 11.6098 541.499 12.5246 541.723 13.417C542.063 14.1895 542.548 14.8889 543.154 15.4768C543.707 16.0833 544.459 16.6105 544.224 17.5853C544.162 18.1172 543.983 18.6289 543.7 19.0836C543.418 19.5384 543.038 19.9251 542.588 20.216C542.588 20.216 542.218 20.5803 542.012 20.6081C541.229 20.9352 540.532 21.4372 539.973 22.0756C539.415 22.7141 539.01 23.472 538.789 24.2912C539.156 24.9857 539.779 25.5097 540.526 25.7514C541.273 25.9931 542.085 25.9335 542.789 25.5853C543.55 25.2721 544.349 25.0586 545.165 24.9502C545.759 24.83 546.375 24.9252 546.904 25.2186C547.434 25.5121 547.841 25.9847 548.053 26.5515C548.365 27.1991 548.538 27.9042 548.563 28.6223C548.588 29.3405 548.463 30.0559 548.197 30.7234C547.222 33.4104 545.912 35.9637 544.298 38.3224C542.034 41.3522 539.923 44.7282 537.865 47.7302C536.278 49.662 534.564 51.486 532.734 53.1902C530.891 55.063 528.925 56.7953 527.198 58.7572C525.194 60.9044 523.072 62.9397 520.843 64.8538C520.117 65.6352 519.46 66.4777 518.878 67.3719C518.437 68.022 518.149 68.7638 518.036 69.5414C517.923 70.3189 517.988 71.1119 518.226 71.8607C518.281 72.0334 518.375 72.1913 518.501 72.3223C518.626 72.4534 518.779 72.5542 518.949 72.617C519.119 72.6799 519.302 72.7033 519.482 72.6853C519.662 72.6673 519.836 72.6085 519.991 72.5133C520.648 72.0247 521.223 71.4342 521.693 70.7642C522.076 70.1508 522.591 69.6302 523.199 69.24C523.808 68.8498 524.496 68.5997 525.213 68.5079C525.658 68.963 525.943 69.549 526.028 70.1792C526.113 70.8094 525.993 71.4503 525.686 72.0068C524.709 73.6417 524.235 75.5277 524.322 77.43C524.948 78.9696 526.629 78.219 527.923 78.8826C527.714 79.2775 527.674 79.7545 527.4 80.0534L524.96 82.1639C523.327 83.8833 522.251 86.0553 521.872 88.3961C521.646 89.0552 522.08 89.9397 522.205 90.8659L526.274 88.7975L528.399 91.34C532.172 89.5946 535.823 87.5967 539.328 85.3597C539.425 86.0801 539.134 86.6432 539.005 87.237L541.166 86.9454C541.148 87.1873 541.092 87.4248 540.999 87.649C540.617 88.0968 540.177 88.491 539.69 88.8211C537.281 90.1008 535.334 92.1044 534.124 94.5494C534.991 94.8113 535.91 94.8569 536.8 94.6821C537.69 94.5072 538.523 94.1173 539.227 93.5464C542.095 91.1161 545.211 88.9668 548.072 86.4851C548.643 86.0466 549.104 85.4823 549.421 84.8361C550.114 82.7977 551.58 81.1133 553.504 80.1463C556.648 78.0004 559.638 75.6362 562.451 73.0712C564.172 71.8319 565.829 70.5067 567.416 69.1005C568.814 67.6206 570.088 66.0294 571.228 64.3425C571.645 63.6284 572 62.8794 572.288 62.1038C572.668 61.4239 573.61 61.0347 573.537 60.1016C573.463 59.1684 573.107 59.6356 573.004 59.6495C572.192 59.8596 571.424 60.2115 570.735 60.6892C566.918 64.2429 562.373 67.0567 558.542 70.5074C554.712 73.9582 551.243 76.2076 547.841 79.3386C546.438 80.8068 544.614 81.8035 542.62 82.1911L542.552 82.4623ZM75.2414 465.105C74.8297 465.161 74.229 464.98 73.9493 466.013L75.176 465.009C75.176 465.009 75.6294 465.262 75.7837 465.242C76.0608 465.228 76.3362 465.191 76.6069 465.131C76.5722 464.873 76.2149 464.555 76.0022 464.531C75.7894 464.507 75.1719 464.591 75.2483 465.157L75.2414 465.105ZM553.006 91.2157C552.55 93.2682 550.788 94.187 549.441 95.4689L548.643 96.1529L549.635 98.8482C551.091 99.5424 552.076 99.462 552.98 98.3969C553.786 97.2555 554.673 96.1729 555.634 95.1573C555.405 93.4593 555.231 92.1729 555.078 91.0409C556.065 89.81 557.408 88.9149 558.924 88.4787C559.747 88.3071 560.537 88.0059 561.266 87.5864C564.782 86.4428 568.09 84.7404 571.064 82.5445C573.62 80.5839 575.634 78.0041 576.916 75.0488C577.548 73.1299 576.869 71.5972 574.886 71.6552C573.943 71.5452 572.988 71.6741 572.108 72.0301C569.387 73.3614 566.794 74.9389 564.361 76.7428C561.927 78.8259 559.324 80.7018 556.578 82.3511C552.795 84.9866 549.155 87.8212 545.674 90.8429C545.287 91.1605 544.988 91.5708 544.803 92.0355C544.618 92.5002 544.555 93.0041 544.617 93.5002C545.701 93.785 546.836 93.8137 547.933 93.5839C549.029 93.3541 550.057 92.8721 550.935 92.1762C551.591 91.7861 552.285 91.4642 553.006 91.2157ZM96.2533 406.106C96.2351 405.621 96.17 405.138 96.0589 404.666C95.8645 403.225 95.528 403.061 94.2139 403.028C92.8997 402.996 92.7217 403.23 92.3211 403.755C92.0515 404.153 91.7014 404.49 91.2933 404.743C90.8853 404.997 90.4285 405.162 89.9526 405.227L84.5926 407.051C83.6989 407.39 82.7126 407.392 81.8169 407.059C79.3966 406.465 76.8413 406.81 74.6647 408.024C75.1807 408.511 75.6262 409.068 75.9883 409.679C76.0828 410.26 75.9987 410.856 75.7473 411.388C75.4621 411.947 75.1104 412.469 74.6999 412.944C76.3063 413.471 78.0533 413.367 79.5853 412.651C79.9642 412.505 80.3717 412.448 80.7764 412.484C81.181 412.52 81.5718 412.649 81.9186 412.86C83.0866 413.751 84.4551 413.409 85.7011 413.712C86.352 413.785 87.0107 413.718 87.6339 413.516C88.257 413.315 88.8302 412.983 89.3155 412.543C90.1792 411.955 91.1667 411.508 91.2434 410.135C91.3202 408.763 91.8931 408.738 92.7777 408.304C93.9841 407.65 95.1452 406.916 96.2533 406.106ZM600.834 228.63C600.039 228.685 599.249 228.792 598.467 228.949C597.645 229.353 596.802 229.712 595.94 230.024C594.622 230.214 593.412 230.859 592.519 231.848C592.257 232.171 591.929 232.435 591.556 232.621C591.184 232.807 590.775 232.91 590.359 232.925C589.544 233.087 588.719 233.199 587.889 233.258C587.468 233.296 587.061 233.432 586.7 233.653C586.339 233.874 586.034 234.176 585.809 234.534C585.213 235.558 584.508 236.544 585.282 238.011C586.204 238.017 587.122 237.893 588.009 237.643C590.742 236.541 593.403 235.291 596.122 234.086C598.001 233.256 598.402 230.792 600.404 230.103C600.662 230.068 600.798 229.526 600.904 229.144C601.009 228.763 600.883 228.99 600.834 228.63ZM600.102 46.1436C598.934 45.2534 599.818 44.0339 599.37 43.0465C598.738 43.1941 598.116 43.383 597.508 43.6121C596.839 43.8755 596.199 44.2076 595.598 44.6032L588.908 49.3829C588.549 49.7015 588.228 50.0613 587.953 50.4549C587.889 50.7513 587.93 51.0608 588.071 51.3296C588.071 51.3296 588.582 51.6273 588.723 51.5036C589.658 51.03 590.567 50.5052 591.445 49.9313C592.264 49.4017 592.959 48.7315 594.044 49.0043C594.1 49.4159 593.867 50.0236 594.211 50.2392C594.554 50.4548 595.244 50.5189 595.754 50.0309L600.102 46.1436ZM76.8384 400.448L71.811 402.017C70.1101 402.613 70.117 402.665 70.5254 404.915C72.8661 404.62 75.1632 404.046 77.3677 403.206L76.8384 400.448ZM537.148 17.1778C536.392 18.1705 535.71 18.9436 535.094 19.8126C534.622 20.494 534.211 21.2157 533.866 21.9692C533.808 22.1219 533.79 22.2864 533.811 22.4481C533.833 22.6097 533.895 22.7634 533.991 22.8954C534.13 22.9931 534.288 23.0601 534.455 23.0917C534.622 23.1234 534.793 23.1192 534.958 23.0792C535.844 22.7241 536.697 22.2935 537.509 21.792C538.078 21.3485 538.547 20.5517 537.942 19.9522C537.803 19.8533 537.686 19.7271 537.598 19.5813C537.511 19.4355 537.453 19.2731 537.431 19.1044C537.408 18.9356 537.42 18.764 537.466 18.6001C537.512 18.4361 537.592 18.2834 537.699 18.1513C537.699 18.1513 537.248 17.531 536.943 17.2055L537.148 17.1778ZM65.8349 417.912C65.4283 417.261 64.9768 416.639 64.4837 416.051C64.4837 416.051 64.072 416.107 63.8661 416.134C63.6603 416.162 62.3376 417.231 62.4597 418.525C62.5818 419.818 63.1491 420.527 63.9418 420.578C64.2492 420.545 64.5462 420.447 64.813 420.291C65.0799 420.135 65.3105 419.924 65.4895 419.672C65.6685 419.42 65.7919 419.133 65.8515 418.829C65.911 418.526 65.9054 418.213 65.8349 417.912ZM4.56726 481.819L7.1886 481.832C7.8718 479.906 7.82034 479.913 6.84841 479.311C6.28552 478.973 5.63855 478.801 4.98225 478.816C4.32596 478.83 3.68708 479.03 3.13953 479.392C3.75128 480.043 5.04872 480.339 4.56726 481.819ZM595.918 88.5168C595.043 88.6348 594.271 88.739 593.808 88.8015C592.71 89.4737 591.885 90.513 591.48 91.7352C591.48 91.7352 591.521 92.0439 591.528 92.0954C591.535 92.1469 591.988 92.4 592.084 92.3347C593.746 91.4306 595.139 90.104 596.123 88.489L595.918 88.5168ZM590.302 213.862C589.118 214.022 588.655 214.084 588.285 214.448C587.915 214.813 586.861 216.317 587.482 216.652C588.104 216.988 588.82 216.472 589.279 215.991C589.738 215.51 589.933 215.012 590.508 213.834L590.302 213.862ZM170.009 466.202C170.884 466.084 171.504 465.634 171.472 465.009C171.44 464.385 170.788 464.211 170.246 464.075L169.577 464.165C169.433 464.169 169.293 464.204 169.164 464.268C169.036 464.331 168.923 464.422 168.834 464.534C168.744 464.646 168.68 464.776 168.645 464.915C168.611 465.054 168.608 465.199 168.635 465.34C168.689 465.996 169.147 466.284 170.009 466.202ZM111.87 457.386C113.057 457.645 114.025 457.829 114.802 456.991C114.855 456.837 114.872 456.674 114.85 456.513C114.828 456.352 114.769 456.198 114.677 456.064C114.553 455.945 114.406 455.853 114.245 455.794C114.084 455.734 113.912 455.709 113.74 455.719C113.317 455.825 112.926 456.032 112.6 456.323C112.274 456.613 112.023 456.978 111.87 457.386ZM583.545 55.4505C581.787 54.8494 581.787 54.8494 581.364 56.3735L583.545 55.4505ZM591.39 225.032L590.875 225.101C590.875 225.101 590.917 225.41 590.875 225.101L591.441 225.025L591.39 225.032ZM583.853 52.6846C583.853 52.6846 583.853 52.6846 583.596 52.7193L583.853 52.6846Z" fill="#007AFF"/>
</svg>
