<svg width="33" height="32" viewBox="0 0 33 32" fill="none" xmlns="http://www.w3.org/2000/svg">
<path fill-rule="evenodd" clip-rule="evenodd" d="M16.4191 28.7999C23.4884 28.7999 29.2191 23.0692 29.2191 16C29.2191 8.93071 23.4884 3.19995 16.4191 3.19995C9.3499 3.19995 3.61914 8.93071 3.61914 16C3.61914 23.0692 9.3499 28.7999 16.4191 28.7999ZM22.3505 13.9313C22.9753 13.3065 22.9753 12.2934 22.3505 11.6686C21.7257 11.0437 20.7126 11.0437 20.0878 11.6686L14.8191 16.9372L12.7505 14.8686C12.1257 14.2437 11.1126 14.2437 10.4878 14.8686C9.86293 15.4934 9.86293 16.5065 10.4878 17.1313L13.6878 20.3313C14.3126 20.9562 15.3257 20.9562 15.9505 20.3313L22.3505 13.9313Z" fill="#007AFF"/>
</svg>
